<?xml version="1.0" encoding="UTF-8" standalone="no"?>
<svg
   version="1.1"
   width="156.262"
   id="svg1609"
   height="144.407"
   sodipodi:docname="Warning.svg"
   inkscape:version="1.2.2 (b0a8486541, 2022-12-01)"
   xmlns:inkscape="http://www.inkscape.org/namespaces/inkscape"
   xmlns:sodipodi="http://sodipodi.sourceforge.net/DTD/sodipodi-0.dtd"
   xmlns="http://www.w3.org/2000/svg"
   xmlns:svg="http://www.w3.org/2000/svg"
   xmlns:rdf="http://www.w3.org/1999/02/22-rdf-syntax-ns#"
   xmlns:cc="http://creativecommons.org/ns#"
   xmlns:dc="http://purl.org/dc/elements/1.1/">
  <sodipodi:namedview
     id="namedview18"
     pagecolor="#ffffff"
     bordercolor="#666666"
     borderopacity="1.0"
     inkscape:showpageshadow="2"
     inkscape:pageopacity="0.0"
     inkscape:pagecheckerboard="0"
     inkscape:deskcolor="#d1d1d1"
     showgrid="false"
     inkscape:zoom="2.7372129"
     inkscape:cx="86.94976"
     inkscape:cy="68.500336"
     inkscape:window-width="1362"
     inkscape:window-height="748"
     inkscape:window-x="0"
     inkscape:window-y="18"
     inkscape:window-maximized="1"
     inkscape:current-layer="svg1609" />
  <title
     id="title4599">Warning sign</title>
  <metadata
     id="metadata2">
    <rdf:RDF>
      <cc:Work
         rdf:about="">
        <dc:title>Warning sign</dc:title>
        <dc:description />
        <dc:subject>
          <rdf:Bag>
            <rdf:li />
            <rdf:li>caution</rdf:li>
            <rdf:li>security</rdf:li>
            <rdf:li>warning</rdf:li>
            <rdf:li>signs_and_symbols</rdf:li>
            <rdf:li>sign</rdf:li>
          </rdf:Bag>
        </dc:subject>
        <dc:publisher>
          <cc:Agent
             rdf:about="http://www.openclipart.org">
            <dc:title>Thomas Weller</dc:title>
          </cc:Agent>
        </dc:publisher>
        <dc:creator>
          <cc:Agent>
            <dc:title>Thomas Weller</dc:title>
          </cc:Agent>
        </dc:creator>
        <dc:rights>
          <cc:Agent>
            <dc:title>Thomas Weller</dc:title>
          </cc:Agent>
        </dc:rights>
        <dc:date />
        <dc:format>image/svg+xml</dc:format>
        <dc:type
           rdf:resource="http://purl.org/dc/dcmitype/StillImage" />
        <cc:license
           rdf:resource="http://web.resource.org/cc/PublicDomain" />
        <dc:language>en</dc:language>
      </cc:Work>
      <cc:License
         rdf:about="http://web.resource.org/cc/PublicDomain">
        <cc:permits
           rdf:resource="http://web.resource.org/cc/Reproduction" />
        <cc:permits
           rdf:resource="http://web.resource.org/cc/Distribution" />
        <cc:permits
           rdf:resource="http://web.resource.org/cc/DerivativeWorks" />
      </cc:License>
    </rdf:RDF>
  </metadata>
  <defs
     id="defs1610">
    <marker
       viewBox="0 0 10 10"
       refY="5"
       refX="0"
       orient="auto"
       markerWidth="4"
       markerUnits="strokeWidth"
       markerHeight="3"
       id="ArrowEnd">
      <path
         id="path1612"
         d="M 0 0 L 10 5 L 0 10 z" />
    </marker>
    <marker
       viewBox="0 0 10 10"
       refY="5"
       refX="10"
       orient="auto"
       markerWidth="4"
       markerUnits="strokeWidth"
       markerHeight="3"
       id="ArrowStart">
      <path
         id="path1614"
         d="M 10 0 L 0 5 L 10 10 z" />
    </marker>
  </defs>
  <path
     id="path4595"
     d="m 78.460357,9.5966327 c -0.135393,0.00168 -0.270262,0.017251 -0.402486,0.046441 -3.165338,0.029179 -6.118808,1.6787893 -7.713019,4.4408913 L 39.384387,67.709424 8.4239224,121.33489 h 0.00198 c -3.3881943,5.8673 1.0074982,13.48299 7.7826886,13.48328 h 61.920929 61.92287 c 6.77519,-3.2e-4 11.17283,-7.61599 7.78462,-13.48328 L 116.87654,67.709424 85.914141,14.083965 C 84.462536,11.568851 81.872765,9.9591256 79.000288,9.6759688 78.856622,9.6335773 78.708616,9.6076101 78.559094,9.5985677 h -0.004 c -0.03091,-0.00137 -0.06192,-0.00201 -0.09283,-0.00193 z"
     style="color:#000000;solid-color:#000000;fill:#000000;fill-opacity:1;stroke:none;stroke-width:0.990735" />
  <path
     style="color:#000000;solid-color:#000000;fill:#ffffff;fill-opacity:1;stroke:none;stroke-width:0.990735"
     d="M 78.460922,11.578102 C 75.845461,11.454506 73.370665,12.806948 72.061775,15.0747 L 41.101311,68.700159 10.140846,122.32562 c -2.649859,4.58873 0.769375,10.51085 6.068251,10.51108 h 61.92093 61.922873 c 5.29888,-2.5e-4 8.71812,-5.92236 6.06825,-10.51108 L 115.16068,68.700159 84.198278,15.0747 c -1.190992,-2.063565 -3.35551,-3.383364 -5.735424,-3.496598 h -0.002 z"
     id="path4583" />
  <path
     style="color:#000000;solid-color:#000000;fill:#000000;fill-opacity:1;stroke:none;stroke-width:0.990735"
     d="M 78.368051,13.557637 C 76.48936,13.468857 74.718332,14.4365 73.778154,16.065434 L 42.81769,69.690894 11.857225,123.31636 c -1.9347369,3.35035 0.483033,7.5387 4.351882,7.53887 h 61.920929 61.922874 c 3.86884,-1.8e-4 6.2866,-4.18853 4.35187,-7.53887 L 113.44432,69.690894 82.481919,16.065434 c -0.855114,-1.481605 -2.405138,-2.426498 -4.113868,-2.507797 z"
     id="path4577" />
  <path
     style="fill:#ffcc00;fill-opacity:1;stroke:none;stroke-width:0.990735"
     id="path4573"
     d="M 140.053,125.82964 H 78.130997 16.208998 L 47.169998,72.20361 78.130997,18.577586 109.092,72.203609 Z" />
  <g
     id="g858"
     transform="matrix(0.99073487,0,0,0.99073487,0.29500221,2.4370252)">
    <circle
       r="8.8173475"
       cy="111.11701"
       cx="78.564362"
       id="path846"
       style="opacity:1;fill:#000000;fill-opacity:1;stroke:none" />
    <path
       id="circle848"
       d="m 78.564453,42.955078 c -4.869714,-5.59e-4 -8.817839,3.946692 -8.818359,8.816406 3.15625,37.460938 0,0 3.15625,37.460938 8.93e-4,3.126411 2.535698,5.660342 5.662109,5.660156 3.126411,1.86e-4 5.661216,-2.533745 5.662109,-5.660156 3.154297,-37.460938 0,0 3.154297,-37.460938 -5.2e-4,-4.868951 -3.947455,-8.815886 -8.816406,-8.816406 z"
       style="opacity:1;fill:#000000;fill-opacity:1;stroke:none" />
  </g>
</svg>
