<?xml version="1.0" encoding="UTF-8" standalone="no"?>
<svg
   xmlns:dc="http://purl.org/dc/elements/1.1/"
   xmlns:cc="http://creativecommons.org/ns#"
   xmlns:rdf="http://www.w3.org/1999/02/22-rdf-syntax-ns#"
   xmlns:svg="http://www.w3.org/2000/svg"
   xmlns="http://www.w3.org/2000/svg"
   xmlns:sodipodi="http://sodipodi.sourceforge.net/DTD/sodipodi-0.dtd"
   xmlns:inkscape="http://www.inkscape.org/namespaces/inkscape"
   width="64.5597mm"
   height="51.279205mm"
   viewBox="0 0 228.75484 181.69797"
   id="svg3659"
   version="1.1"
   inkscape:version="1.0.2 (e86c870879, 2021-01-15)"
   sodipodi:docname="ciii.svg"
   inkscape:export-filename="/home/claudiojpaz/Documentos/doc/claudiojpaz_docs/informes/images/ciii.png"
   inkscape:export-xdpi="90"
   inkscape:export-ydpi="90">
  <defs
     id="defs3661" />
  <sodipodi:namedview
     id="base"
     pagecolor="#ffffff"
     bordercolor="#666666"
     borderopacity="1.0"
     inkscape:pageopacity="0.0"
     inkscape:pageshadow="2"
     inkscape:zoom="2.1459296"
     inkscape:cx="17.329542"
     inkscape:cy="76.284727"
     inkscape:document-units="px"
     inkscape:current-layer="layer1"
     showgrid="false"
     inkscape:window-width="1362"
     inkscape:window-height="748"
     inkscape:window-x="0"
     inkscape:window-y="18"
     inkscape:window-maximized="1"
     inkscape:document-rotation="0"
     fit-margin-top="0"
     fit-margin-left="0"
     fit-margin-right="0"
     fit-margin-bottom="0"
     inkscape:snap-global="false" />
  <metadata
     id="metadata3664">
    <rdf:RDF>
      <cc:Work
         rdf:about="">
        <dc:format>image/svg+xml</dc:format>
        <dc:type
           rdf:resource="http://purl.org/dc/dcmitype/StillImage" />
        <dc:title />
      </cc:Work>
    </rdf:RDF>
  </metadata>
  <g
     inkscape:label="Capa 1"
     inkscape:groupmode="layer"
     id="layer1"
     transform="translate(-257.66981,-435.33208)">
    <rect
       style="fill:#3776ab;fill-opacity:1;fill-rule:nonzero;stroke:none;stroke-width:0;stroke-linecap:butt;stroke-linejoin:round;stroke-miterlimit:3;stroke-dasharray:none;stroke-dashoffset:0;stroke-opacity:1;font-variation-settings:normal;opacity:1;vector-effect:none;stop-color:#000000;stop-opacity:1"
       id="rect4193"
       width="26.301241"
       height="26.296694"
       x="402.95047"
       y="482.43323"
       rx="13.15062"
       ry="13.148347" />
    <rect
       ry="13.148347"
       rx="13.15062"
       y="482.43323"
       x="445.03247"
       height="26.296694"
       width="26.301241"
       id="rect4197"
       style="fill:#3776ab;fill-opacity:1;fill-rule:nonzero;stroke:none;stroke-width:0;stroke-linecap:butt;stroke-linejoin:round;stroke-miterlimit:3;stroke-dasharray:none;stroke-dashoffset:0;stroke-opacity:1;font-variation-settings:normal;opacity:1;vector-effect:none;stop-color:#000000;stop-opacity:1" />
    <rect
       ry="13.148347"
       rx="13.15062"
       y="482.43323"
       x="360.86847"
       height="26.296694"
       width="26.301241"
       id="rect4199"
       style="fill:#3776ab;fill-opacity:1;fill-rule:nonzero;stroke:none;stroke-width:0;stroke-linecap:butt;stroke-linejoin:round;stroke-miterlimit:3;stroke-dasharray:none;stroke-dashoffset:0;stroke-opacity:1;font-variation-settings:normal;opacity:1;vector-effect:none;stop-color:#000000;stop-opacity:1" />
    <path
       style="fill:#3776ab;fill-opacity:1;fill-rule:nonzero;stroke:none;stroke-width:0;stroke-linecap:butt;stroke-linejoin:round;stroke-miterlimit:3;stroke-dasharray:none;stroke-dashoffset:0;stroke-opacity:1"
       d="m 376.81538,447.29214 c -0.886,-0.008 -1.78588,0.002 -2.70038,0.0334 -19.36766,0.51032 -42.36424,11.22783 -58.521,25.47588 -37.39714,33.30351 -55.81319,86.35843 -32.71152,116.2808 12.58443,17.55409 41.60615,21.00595 68.13614,8.54655 3.27983,-1.39671 6.58138,-3.06052 9.85687,-4.93235 v 0.007 c 5.05901,-2.87502 9.55786,-5.97358 13.5862,-9.07286 0.72799,-0.5601 1.44818,-1.117 2.14376,-1.67592 0.80078,-0.63929 1.594,-1.28972 2.37914,-1.94623 0.0624,-0.0525 0.12242,-0.10339 0.18448,-0.15582 2.78742,-2.33922 5.47043,-4.77848 8.00731,-7.28246 0.002,-0.002 0.005,-0.003 0.007,-0.005 v -11.25919 -2.79373 c -0.002,0.002 -0.004,0.004 -0.007,0.007 v -43.28947 h -26.30089 v 61.50655 c -0.57421,0.26287 -1.14906,0.51781 -1.72074,0.76005 -21.58279,10.07968 -43.31684,4.06066 -52.68448,-10.6009 -13.82988,-21.64549 -3.50473,-60.63528 26.95929,-87.51987 18.71204,-16.35339 46.55198,-26.4782 63.20452,-16.02458 4.24913,2.66728 9.08458,6.79476 10.76813,14.21669 4.19047,-2.27152 8.86726,-2.73127 12.08175,-1.64253 -1.41854,-9.38637 -15.20276,-28.37632 -42.66858,-28.63214 z"
       id="path4201" />
    <path
       style="fill:#3776ab;fill-opacity:1;fill-rule:nonzero;stroke:none;stroke-width:0;stroke-linecap:butt;stroke-linejoin:round;stroke-miterlimit:3;stroke-dasharray:none;stroke-dashoffset:0;stroke-opacity:1;font-variation-settings:normal;opacity:1;vector-effect:none;stop-color:#000000;stop-opacity:1"
       d="m 402.95768,515.22959 v 77.47254 c 11.29765,-6.42039 19.94457,-13.94929 26.30124,-20.13341 v -57.33913 z"
       id="path4205"
       inkscape:connector-curvature="0" />
    <path
       id="path4207"
       d="m 445.03967,515.22959 v 77.47254 c 11.29765,-6.42039 19.94458,-13.94929 26.30124,-20.13341 v -57.33913 z"
       style="fill:#3776ab;fill-opacity:1;fill-rule:nonzero;stroke:none;stroke-width:0;stroke-linecap:butt;stroke-linejoin:round;stroke-miterlimit:3;stroke-dasharray:none;stroke-dashoffset:0;stroke-opacity:1;font-variation-settings:normal;opacity:1;vector-effect:none;stop-color:#000000;stop-opacity:1"
       inkscape:connector-curvature="0" />
  </g>
</svg>
