<?xml version="1.0" encoding="UTF-8" standalone="no"?>
<!-- Created with Inkscape (http://www.inkscape.org/) -->

<svg
   width="112.33142mm"
   height="46.902115mm"
   viewBox="0 0 112.33142 46.902115"
   version="1.1"
   id="svg6236"
   inkscape:version="1.2.2 (b0a8486541, 2022-12-01)"
   sodipodi:docname="process.svg"
   xmlns:inkscape="http://www.inkscape.org/namespaces/inkscape"
   xmlns:sodipodi="http://sodipodi.sourceforge.net/DTD/sodipodi-0.dtd"
   xmlns="http://www.w3.org/2000/svg"
   xmlns:svg="http://www.w3.org/2000/svg">
  <sodipodi:namedview
     id="namedview6238"
     pagecolor="#ffffff"
     bordercolor="#666666"
     borderopacity="1.0"
     inkscape:showpageshadow="2"
     inkscape:pageopacity="0.0"
     inkscape:pagecheckerboard="0"
     inkscape:deskcolor="#d1d1d1"
     inkscape:document-units="mm"
     showgrid="false"
     inkscape:zoom="1.4085194"
     inkscape:cx="218.66933"
     inkscape:cy="62.12197"
     inkscape:window-width="1362"
     inkscape:window-height="748"
     inkscape:window-x="0"
     inkscape:window-y="18"
     inkscape:window-maximized="1"
     inkscape:current-layer="layer1" />
  <defs
     id="defs6233" />
  <g
     inkscape:label="Capa 1"
     inkscape:groupmode="layer"
     id="layer1"
     transform="translate(-51.662571,-120.99783)">
    <rect
       style="fill:#ffffff;stroke-width:3;stroke-linecap:round;stop-color:#000000"
       id="rect8214"
       width="112.33142"
       height="46.902115"
       x="51.662571"
       y="120.99783" />
    <path
       fill="none"
       stroke-width="0.352778"
       stroke-linecap="butt"
       stroke-linejoin="miter"
       stroke="#b3e7fb"
       stroke-opacity="1"
       stroke-miterlimit="4"
       d="M 88.098905,133.3286 H 143.15566"
       id="path634" />
    <path
       fill="none"
       stroke-width="0.352778"
       stroke-linecap="butt"
       stroke-linejoin="miter"
       stroke="#b3e7fb"
       stroke-opacity="1"
       stroke-miterlimit="4"
       d="M 88.098905,139.01714 H 143.15566"
       id="path636" />
    <path
       fill="none"
       stroke-width="0.352778"
       stroke-linecap="butt"
       stroke-linejoin="miter"
       stroke="#b3e7fb"
       stroke-opacity="1"
       stroke-miterlimit="4"
       d="M 88.098905,144.70706 H 143.15566"
       id="path638" />
    <path
       fill="none"
       stroke-width="0.352778"
       stroke-linecap="butt"
       stroke-linejoin="miter"
       stroke="#b3e7fb"
       stroke-opacity="1"
       stroke-miterlimit="4"
       d="M 88.098905,150.3956 H 143.15566"
       id="path640" />
    <path
       fill="none"
       stroke-width="0.352778"
       stroke-linecap="butt"
       stroke-linejoin="miter"
       stroke="#b3e7fb"
       stroke-opacity="1"
       stroke-miterlimit="4"
       d="M 88.098905,156.08553 H 143.15566"
       id="path642" />
    <path
       fill="none"
       stroke-width="0.352778"
       stroke-linecap="butt"
       stroke-linejoin="miter"
       stroke="#b3e7fb"
       stroke-opacity="1"
       stroke-miterlimit="4"
       d="M 88.098905,161.77407 H 143.15566"
       id="path644" />
    <path
       fill="none"
       stroke-width="0.440972"
       stroke-linecap="butt"
       stroke-linejoin="miter"
       stroke="#231f20"
       stroke-opacity="1"
       stroke-miterlimit="4"
       d="m 116.11993,144.87794 v 3.39135"
       id="path646" />
    <path
       fill-rule="nonzero"
       fill="#231f20"
       fill-opacity="1"
       d="m 116.11993,147.9992 0.95222,-0.58016 0.0221,0.0331 -0.61736,1.55442 c -0.11851,0.54157 -0.2384,1.08314 -0.35691,1.62471 -0.11989,-0.54157 -0.2384,-1.08314 -0.35829,-1.62471 l -0.61736,-1.55442 0.0166,-0.0331 0.95911,0.58016"
       id="path648"
       style="stroke-width:0.352778" />
    <path
       fill="none"
       stroke-width="0.440972"
       stroke-linecap="butt"
       stroke-linejoin="miter"
       stroke="#231f20"
       stroke-opacity="1"
       stroke-miterlimit="4"
       d="m 115.87051,150.64503 -15.16531,4.54201"
       id="path650" />
    <path
       fill-rule="nonzero"
       fill="#231f20"
       fill-opacity="1"
       d="m 100.96427,155.10987 0.8282,0.7469 -0.0248,0.0303 -1.66605,-0.14607 c -0.552593,0.0413 -1.106564,0.0827 -1.659158,0.12403 0.485069,-0.2701 0.968759,-0.53882 1.453829,-0.80891 l 1.311889,-1.03767 0.0358,0.007 -0.27974,1.08452"
       id="path652"
       style="stroke-width:0.352778" />
    <path
       fill="none"
       stroke-width="0.440972"
       stroke-linecap="butt"
       stroke-linejoin="miter"
       stroke="#231f20"
       stroke-opacity="1"
       stroke-miterlimit="4"
       d="m 98.487935,156.20403 v 3.02893"
       id="path654" />
    <path
       fill-rule="nonzero"
       fill="#231f20"
       fill-opacity="1"
       d="m 98.487935,158.96287 0.953601,-0.58016 0.02067,0.0317 -0.617361,1.55443 c -0.118512,0.54294 -0.238403,1.08451 -0.356912,1.62608 -0.119892,-0.54157 -0.2384,-1.08314 -0.358292,-1.62608 l -0.617361,-1.55443 0.01655,-0.0317 0.959115,0.58016"
       id="path656"
       style="stroke-width:0.352778" />
    <path
       fill="none"
       stroke-width="0.440972"
       stroke-linecap="butt"
       stroke-linejoin="miter"
       stroke="#231f20"
       stroke-opacity="1"
       stroke-miterlimit="4"
       d="m 98.487935,133.58629 v 3.28249"
       id="path658" />
    <path
       fill-rule="nonzero"
       fill="#231f20"
       fill-opacity="1"
       d="m 98.487935,136.59868 0.953601,-0.58015 0.02067,0.0331 -0.617361,1.55442 c -0.118512,0.54157 -0.238403,1.08314 -0.356912,1.62471 -0.119892,-0.54157 -0.2384,-1.08314 -0.358292,-1.62471 l -0.617361,-1.55442 0.01655,-0.0331 0.959115,0.58015"
       id="path660"
       style="stroke-width:0.352778" />
    <path
       fill="none"
       stroke-width="0.440972"
       stroke-linecap="butt"
       stroke-linejoin="miter"
       stroke="#231f20"
       stroke-opacity="1"
       stroke-miterlimit="4"
       d="m 98.751139,139.17148 15.042671,4.60265"
       id="path662" />
    <path
       fill-rule="nonzero"
       fill="#231f20"
       fill-opacity="1"
       d="m 113.53611,143.69558 -0.27561,-1.08176 0.0372,-0.011 1.30638,1.04455 c 0.48369,0.27285 0.966,0.5457 1.44832,0.81856 -0.5526,-0.0455 -1.10519,-0.0896 -1.65778,-0.13368 l -1.66743,0.13505 -0.0262,-0.0248 0.83509,-0.7469"
       id="path664"
       style="stroke-width:0.352778" />
    <path
       fill="none"
       stroke-width="0.176389"
       stroke-linecap="butt"
       stroke-linejoin="miter"
       stroke="#231f20"
       stroke-opacity="1"
       stroke-dasharray="3, 2"
       stroke-miterlimit="4"
       d="m 107.82828,127.32449 v 36.99206"
       id="path666" />
    <g
       fill="#231f20"
       fill-opacity="1"
       id="g684"
       transform="matrix(0.35277777,0,0,0.35277777,-24.49646,82.926856)">
      <g
         id="use668"
         transform="translate(331.5733,134.83231)">
        <path
           d="m 1.46875,-5.078125 h 1.578125 c 0.640625,0 1.125,0.234375 1.125,0.953125 0,0.78125 -0.46875,1.03125 -1.15625,1.03125 H 1.46875 Z m 0,2.65625 h 1.796875 c 1.25,0 1.703125,-0.90625 1.703125,-1.703125 0,-0.9375 -0.625,-1.625 -1.703125,-1.625 H 0.6875 V 0 h 0.78125 z m 0,0"
           id="path7644" />
      </g>
      <g
         id="use670"
         transform="translate(336.9093,134.83231)">
        <path
           d="m 1.3125,-2.4375 c 0,-0.609375 0.421875,-1.109375 1.078125,-1.109375 H 2.65625 V -4.28125 c -0.0625,-0.015625 -0.09375,-0.015625 -0.1875,-0.015625 -0.53125,0 -0.890625,0.328125 -1.171875,0.8125 H 1.28125 V -4.1875 H 0.609375 V 0 H 1.3125 Z m 0,0"
           id="path7600" />
      </g>
      <g
         id="use672"
         transform="translate(339.5733,134.83231)">
        <path
           d="m 0.28125,-2.09375 c 0,1.078125 0.609375,2.203125 1.9375,2.203125 1.34375,0 1.953125,-1.125 1.953125,-2.203125 0,-1.078125 -0.609375,-2.203125 -1.953125,-2.203125 -1.328125,0 -1.9375,1.125 -1.9375,2.203125 z m 0.734375,0 c 0,-0.5625 0.203125,-1.609375 1.203125,-1.609375 1.015625,0 1.21875,1.046875 1.21875,1.609375 0,0.5625 -0.203125,1.59375 -1.21875,1.59375 -1,0 -1.203125,-1.03125 -1.203125,-1.59375 z m 0,0"
           id="path7560" />
      </g>
      <g
         id="use674"
         transform="translate(344.0213,134.83231)">
        <path
           d="M 3.8125,-2.78125 C 3.765625,-3.5 3.34375,-4.296875 2.25,-4.296875 c -1.390625,0 -2.015625,1.03125 -2.015625,2.328125 0,1.203125 0.703125,2.09375 1.875,2.09375 C 3.34375,0.125 3.75,-0.8125 3.8125,-1.484375 H 3.140625 c -0.125,0.640625 -0.53125,1 -1,1 -0.96875,0 -1.15625,-0.890625 -1.15625,-1.609375 0,-0.75 0.28125,-1.578125 1.15625,-1.578125 0.59375,0 0.90625,0.328125 1,0.890625 z m 0,0"
           id="path7524" />
      </g>
      <g
         id="use676"
         transform="translate(348.0213,134.83231)">
        <path
           d="M 3.375,-1.3125 C 3.34375,-1 2.953125,-0.484375 2.28125,-0.484375 c -0.796875,0 -1.203125,-0.5 -1.203125,-1.375 H 4.125 c 0,-1.484375 -0.59375,-2.4375 -1.796875,-2.4375 -1.390625,0 -2.015625,1.03125 -2.015625,2.328125 0,1.203125 0.703125,2.09375 1.875,2.09375 0.671875,0 0.953125,-0.171875 1.140625,-0.296875 0.53125,-0.34375 0.71875,-0.9375 0.75,-1.140625 z M 1.078125,-2.421875 c 0,-0.65625 0.5,-1.25 1.15625,-1.25 0.859375,0 1.125,0.59375 1.171875,1.25 z m 0,0"
           id="path7448" />
      </g>
      <g
         id="use678"
         transform="translate(352.4693,134.83231)">
        <path
           d="m 3.578125,-2.984375 c 0,-0.21875 -0.109375,-1.3125 -1.609375,-1.3125 -0.8125,0 -1.578125,0.40625 -1.578125,1.328125 0,0.578125 0.390625,0.875 0.96875,1.015625 L 2.171875,-1.75 c 0.609375,0.15625 0.84375,0.265625 0.84375,0.59375 0,0.46875 -0.46875,0.671875 -0.96875,0.671875 -0.984375,0 -1.09375,-0.53125 -1.109375,-0.859375 H 0.25 c 0.03125,0.5 0.15625,1.46875 1.8125,1.46875 0.9375,0 1.65625,-0.53125 1.65625,-1.390625 0,-0.5625 -0.3125,-0.890625 -1.1875,-1.109375 L 1.828125,-2.546875 c -0.546875,-0.140625 -0.75,-0.21875 -0.75,-0.5625 0,-0.515625 0.609375,-0.59375 0.828125,-0.59375 0.890625,0 0.984375,0.453125 0.984375,0.71875 z m 0,0"
           id="path7408" />
      </g>
      <g
         id="use680"
         transform="translate(356.4693,134.83231)">
        <path
           d="m 3.578125,-2.984375 c 0,-0.21875 -0.109375,-1.3125 -1.609375,-1.3125 -0.8125,0 -1.578125,0.40625 -1.578125,1.328125 0,0.578125 0.390625,0.875 0.96875,1.015625 L 2.171875,-1.75 c 0.609375,0.15625 0.84375,0.265625 0.84375,0.59375 0,0.46875 -0.46875,0.671875 -0.96875,0.671875 -0.984375,0 -1.09375,-0.53125 -1.109375,-0.859375 H 0.25 c 0.03125,0.5 0.15625,1.46875 1.8125,1.46875 0.9375,0 1.65625,-0.53125 1.65625,-1.390625 0,-0.5625 -0.3125,-0.890625 -1.1875,-1.109375 L 1.828125,-2.546875 c -0.546875,-0.140625 -0.75,-0.21875 -0.75,-0.5625 0,-0.515625 0.609375,-0.59375 0.828125,-0.59375 0.890625,0 0.984375,0.453125 0.984375,0.71875 z m 0,0"
           id="path7412" />
      </g>
      <g
         id="use682"
         transform="translate(360.4693,134.83231)" />
    </g>
    <g
       fill="#231f20"
       fill-opacity="1"
       id="g688"
       transform="matrix(0.35277777,0,0,0.35277777,-24.49646,82.926856)">
      <g
         id="use686"
         transform="translate(362.2533,134.83231)">
        <path
           d="M 3.8125,-1.671875 4.390625,0 h 0.84375 L 3.15625,-5.75 H 2.265625 L 0.109375,0 H 0.90625 L 1.515625,-1.671875 Z M 1.75,-2.359375 2.671875,-4.890625 H 2.6875 l 0.84375,2.53125 z m 0,0"
           id="path7386" />
      </g>
    </g>
    <g
       fill="#231f20"
       fill-opacity="1"
       id="g698"
       transform="matrix(0.35277777,0,0,0.35277777,-24.49646,82.926856)">
      <g
         id="use690"
         transform="translate(284.4519,161.4534)">
        <path
           d="m 1.890625,-1.578125 c 0,-0.796875 0.5,-1.625 1.53125,-1.625 0,0.21875 0.140625,0.375 0.359375,0.375 0.1875,0 0.359375,-0.125 0.359375,-0.359375 0,-0.171875 -0.109375,-0.53125 -0.8125,-0.53125 -0.421875,0 -0.96875,0.15625 -1.4375,0.6875 V -3.3125 c 0,-0.265625 -0.046875,-0.34375 -0.34375,-0.34375 h -0.9375 c -0.125,0 -0.34375,0 -0.34375,0.25 0,0.265625 0.203125,0.265625 0.34375,0.265625 h 0.6875 v 2.625 h -0.6875 c -0.125,0 -0.34375,0 -0.34375,0.25 C 0.265625,0 0.46875,0 0.609375,0 h 2.21875 c 0.125,0 0.34375,0 0.34375,-0.25 0,-0.265625 -0.21875,-0.265625 -0.34375,-0.265625 h -0.9375 z m 0,0"
           id="path7174" />
      </g>
      <g
         id="use692"
         transform="translate(288.9144,161.4534)">
        <path
           d="m 3.609375,-1.625 c 0.171875,0 0.328125,0 0.328125,-0.3125 0,-0.96875 -0.53125,-1.796875 -1.640625,-1.796875 -1.015625,0 -1.828125,0.84375 -1.828125,1.890625 0,1.03125 0.859375,1.890625 1.953125,1.890625 1.125,0 1.515625,-0.765625 1.515625,-0.96875 0,-0.25 -0.234375,-0.25 -0.296875,-0.25 -0.140625,0 -0.203125,0.03125 -0.28125,0.1875 -0.171875,0.4375 -0.640625,0.515625 -0.875,0.515625 -0.640625,0 -1.28125,-0.421875 -1.40625,-1.15625 z m -2.53125,-0.515625 c 0.125,-0.609375 0.625,-1.078125 1.21875,-1.078125 0.4375,0 0.96875,0.203125 1.046875,1.078125 z m 0,0"
           id="path7166" />
      </g>
      <g
         id="use694"
         transform="translate(293.37689,161.4534)">
        <path
           d="M 3.109375,-0.265625 C 3.296875,-0.015625 3.703125,0 4.03125,0 c 0.234375,0 0.421875,0 0.421875,-0.265625 0,-0.25 -0.21875,-0.25 -0.34375,-0.25 -0.359375,0 -0.4375,-0.046875 -0.5,-0.078125 v -1.828125 c 0,-0.609375 -0.46875,-1.3125 -1.6875,-1.3125 -0.359375,0 -1.234375,0 -1.234375,0.609375 0,0.265625 0.171875,0.390625 0.390625,0.390625 0.125,0 0.359375,-0.078125 0.359375,-0.390625 0,-0.0625 0.015625,-0.078125 0.1875,-0.09375 0.125,0 0.234375,0 0.296875,0 0.65625,0 1.09375,0.265625 1.09375,0.859375 -1.5,0.03125 -2.546875,0.453125 -2.546875,1.265625 C 0.46875,-0.5 1,0.046875 1.875,0.046875 c 0.3125,0 0.84375,-0.0625 1.234375,-0.3125 z m -0.09375,-1.59375 v 0.71875 c 0,0.203125 0,0.375 -0.328125,0.53125 C 2.375,-0.46875 2,-0.46875 1.921875,-0.46875 c -0.515625,0 -0.875,-0.28125 -0.875,-0.625 0,-0.40625 0.734375,-0.71875 1.96875,-0.765625 z m 0,0"
           id="path7158" />
      </g>
      <g
         id="use696"
         transform="translate(297.83939,161.4534)">
        <path
           d="M 3.046875,-0.421875 C 3.046875,-0.125 3.046875,0 3.390625,0 H 4 c 0.140625,0 0.359375,0 0.359375,-0.265625 0,-0.25 -0.234375,-0.25 -0.34375,-0.25 H 3.625 V -4.84375 c 0,-0.265625 -0.046875,-0.34375 -0.328125,-0.34375 h -0.625 c -0.140625,0 -0.34375,0 -0.34375,0.25 0,0.265625 0.21875,0.265625 0.328125,0.265625 h 0.390625 v 1.34375 c -0.28125,-0.25 -0.640625,-0.390625 -1,-0.390625 -0.921875,0 -1.734375,0.8125 -1.734375,1.890625 0,1.046875 0.765625,1.875 1.65625,1.875 0.484375,0 0.84375,-0.21875 1.078125,-0.46875 z m 0,-1.828125 v 0.59375 c 0,0.484375 -0.390625,1.1875 -1.046875,1.1875 -0.59375,0 -1.109375,-0.609375 -1.109375,-1.359375 0,-0.8125 0.59375,-1.375 1.1875,-1.375 0.546875,0 0.96875,0.484375 0.96875,0.953125 z m 0,0"
           id="path7150" />
      </g>
    </g>
    <g
       fill="#231f20"
       fill-opacity="1"
       id="g718"
       transform="matrix(0.35277777,0,0,0.35277777,-24.49646,82.926856)">
      <g
         id="use700"
         transform="translate(381.57281,134.83231)">
        <path
           d="m 1.46875,-5.078125 h 1.578125 c 0.640625,0 1.125,0.234375 1.125,0.953125 0,0.78125 -0.46875,1.03125 -1.15625,1.03125 H 1.46875 Z m 0,2.65625 h 1.796875 c 1.25,0 1.703125,-0.90625 1.703125,-1.703125 0,-0.9375 -0.625,-1.625 -1.703125,-1.625 H 0.6875 V 0 h 0.78125 z m 0,0"
           id="path7648" />
      </g>
      <g
         id="use702"
         transform="translate(386.90881,134.83231)">
        <path
           d="m 1.3125,-2.4375 c 0,-0.609375 0.421875,-1.109375 1.078125,-1.109375 H 2.65625 V -4.28125 c -0.0625,-0.015625 -0.09375,-0.015625 -0.1875,-0.015625 -0.53125,0 -0.890625,0.328125 -1.171875,0.8125 H 1.28125 V -4.1875 H 0.609375 V 0 H 1.3125 Z m 0,0"
           id="path7604" />
      </g>
      <g
         id="use704"
         transform="translate(389.57281,134.83231)">
        <path
           d="m 0.28125,-2.09375 c 0,1.078125 0.609375,2.203125 1.9375,2.203125 1.34375,0 1.953125,-1.125 1.953125,-2.203125 0,-1.078125 -0.609375,-2.203125 -1.953125,-2.203125 -1.328125,0 -1.9375,1.125 -1.9375,2.203125 z m 0.734375,0 c 0,-0.5625 0.203125,-1.609375 1.203125,-1.609375 1.015625,0 1.21875,1.046875 1.21875,1.609375 0,0.5625 -0.203125,1.59375 -1.21875,1.59375 -1,0 -1.203125,-1.03125 -1.203125,-1.59375 z m 0,0"
           id="path7564" />
      </g>
      <g
         id="use706"
         transform="translate(394.02081,134.83231)">
        <path
           d="M 3.8125,-2.78125 C 3.765625,-3.5 3.34375,-4.296875 2.25,-4.296875 c -1.390625,0 -2.015625,1.03125 -2.015625,2.328125 0,1.203125 0.703125,2.09375 1.875,2.09375 C 3.34375,0.125 3.75,-0.8125 3.8125,-1.484375 H 3.140625 c -0.125,0.640625 -0.53125,1 -1,1 -0.96875,0 -1.15625,-0.890625 -1.15625,-1.609375 0,-0.75 0.28125,-1.578125 1.15625,-1.578125 0.59375,0 0.90625,0.328125 1,0.890625 z m 0,0"
           id="path7528" />
      </g>
      <g
         id="use708"
         transform="translate(398.02081,134.83231)">
        <path
           d="M 3.375,-1.3125 C 3.34375,-1 2.953125,-0.484375 2.28125,-0.484375 c -0.796875,0 -1.203125,-0.5 -1.203125,-1.375 H 4.125 c 0,-1.484375 -0.59375,-2.4375 -1.796875,-2.4375 -1.390625,0 -2.015625,1.03125 -2.015625,2.328125 0,1.203125 0.703125,2.09375 1.875,2.09375 0.671875,0 0.953125,-0.171875 1.140625,-0.296875 0.53125,-0.34375 0.71875,-0.9375 0.75,-1.140625 z M 1.078125,-2.421875 c 0,-0.65625 0.5,-1.25 1.15625,-1.25 0.859375,0 1.125,0.59375 1.171875,1.25 z m 0,0"
           id="path7452" />
      </g>
      <g
         id="use710"
         transform="translate(402.46881,134.83231)">
        <path
           d="m 3.578125,-2.984375 c 0,-0.21875 -0.109375,-1.3125 -1.609375,-1.3125 -0.8125,0 -1.578125,0.40625 -1.578125,1.328125 0,0.578125 0.390625,0.875 0.96875,1.015625 L 2.171875,-1.75 c 0.609375,0.15625 0.84375,0.265625 0.84375,0.59375 0,0.46875 -0.46875,0.671875 -0.96875,0.671875 -0.984375,0 -1.09375,-0.53125 -1.109375,-0.859375 H 0.25 c 0.03125,0.5 0.15625,1.46875 1.8125,1.46875 0.9375,0 1.65625,-0.53125 1.65625,-1.390625 0,-0.5625 -0.3125,-0.890625 -1.1875,-1.109375 L 1.828125,-2.546875 c -0.546875,-0.140625 -0.75,-0.21875 -0.75,-0.5625 0,-0.515625 0.609375,-0.59375 0.828125,-0.59375 0.890625,0 0.984375,0.453125 0.984375,0.71875 z m 0,0"
           id="path7416" />
      </g>
      <g
         id="use712"
         transform="translate(406.46881,134.83231)">
        <path
           d="m 3.578125,-2.984375 c 0,-0.21875 -0.109375,-1.3125 -1.609375,-1.3125 -0.8125,0 -1.578125,0.40625 -1.578125,1.328125 0,0.578125 0.390625,0.875 0.96875,1.015625 L 2.171875,-1.75 c 0.609375,0.15625 0.84375,0.265625 0.84375,0.59375 0,0.46875 -0.46875,0.671875 -0.96875,0.671875 -0.984375,0 -1.09375,-0.53125 -1.109375,-0.859375 H 0.25 c 0.03125,0.5 0.15625,1.46875 1.8125,1.46875 0.9375,0 1.65625,-0.53125 1.65625,-1.390625 0,-0.5625 -0.3125,-0.890625 -1.1875,-1.109375 L 1.828125,-2.546875 c -0.546875,-0.140625 -0.75,-0.21875 -0.75,-0.5625 0,-0.515625 0.609375,-0.59375 0.828125,-0.59375 0.890625,0 0.984375,0.453125 0.984375,0.71875 z m 0,0"
           id="path7420" />
      </g>
      <g
         id="use714"
         transform="translate(410.46881,134.83231)" />
      <g
         id="use716"
         transform="translate(412.69281,134.83231)">
        <path
           d="m 1.375,-5.078125 h 1.40625 c 0.859375,0 1.1875,0.296875 1.1875,0.84375 0,0.703125 -0.453125,0.921875 -1.203125,0.921875 H 1.375 Z M 0.59375,0 H 3.0625 C 4.34375,0 5.015625,-0.78125 5.015625,-1.703125 5.015625,-2.6875 4.359375,-2.9375 3.96875,-3.09375 4.609375,-3.390625 4.75,-3.921875 4.75,-4.296875 4.75,-5.078125 4.1875,-5.75 3.125,-5.75 H 0.59375 Z M 1.375,-2.6875 h 1.515625 c 0.640625,0 1.34375,0.171875 1.34375,0.96875 0,0.640625 -0.40625,1.0625 -1.203125,1.0625 H 1.375 Z m 0,0"
           id="path7382" />
      </g>
    </g>
    <g
       fill="#231f20"
       fill-opacity="1"
       id="g738"
       transform="matrix(0.35277777,0,0,0.35277777,-24.49646,82.926856)">
      <g
         id="use720"
         transform="translate(430.57281,153.1683)">
        <path
           d="m 4.375,-5.75 v 3.640625 c 0,1.25 -0.796875,1.578125 -1.515625,1.578125 -0.6875,0 -1.453125,-0.34375 -1.453125,-1.59375 V -5.75 H 0.625 v 3.84375 c 0,1.0625 0.671875,2.0625 2.21875,2.0625 1.578125,0 2.3125,-1 2.3125,-2.171875 V -5.75 Z m 0,0"
           id="path7370" />
      </g>
      <g
         id="use722"
         transform="translate(436.34879,153.1683)">
        <path
           d="m 3.578125,-2.984375 c 0,-0.21875 -0.109375,-1.3125 -1.609375,-1.3125 -0.8125,0 -1.578125,0.40625 -1.578125,1.328125 0,0.578125 0.390625,0.875 0.96875,1.015625 L 2.171875,-1.75 c 0.609375,0.15625 0.84375,0.265625 0.84375,0.59375 0,0.46875 -0.46875,0.671875 -0.96875,0.671875 -0.984375,0 -1.09375,-0.53125 -1.109375,-0.859375 H 0.25 c 0.03125,0.5 0.15625,1.46875 1.8125,1.46875 0.9375,0 1.65625,-0.53125 1.65625,-1.390625 0,-0.5625 -0.3125,-0.890625 -1.1875,-1.109375 L 1.828125,-2.546875 c -0.546875,-0.140625 -0.75,-0.21875 -0.75,-0.5625 0,-0.515625 0.609375,-0.59375 0.828125,-0.59375 0.890625,0 0.984375,0.453125 0.984375,0.71875 z m 0,0"
           id="path7424" />
      </g>
      <g
         id="use724"
         transform="translate(440.34879,153.1683)">
        <path
           d="M 3.375,-1.3125 C 3.34375,-1 2.953125,-0.484375 2.28125,-0.484375 c -0.796875,0 -1.203125,-0.5 -1.203125,-1.375 H 4.125 c 0,-1.484375 -0.59375,-2.4375 -1.796875,-2.4375 -1.390625,0 -2.015625,1.03125 -2.015625,2.328125 0,1.203125 0.703125,2.09375 1.875,2.09375 0.671875,0 0.953125,-0.171875 1.140625,-0.296875 0.53125,-0.34375 0.71875,-0.9375 0.75,-1.140625 z M 1.078125,-2.421875 c 0,-0.65625 0.5,-1.25 1.15625,-1.25 0.859375,0 1.125,0.59375 1.171875,1.25 z m 0,0"
           id="path7456" />
      </g>
      <g
         id="use726"
         transform="translate(444.79681,153.1683)">
        <path
           d="m 1.3125,-2.4375 c 0,-0.609375 0.421875,-1.109375 1.078125,-1.109375 H 2.65625 V -4.28125 c -0.0625,-0.015625 -0.09375,-0.015625 -0.1875,-0.015625 -0.53125,0 -0.890625,0.328125 -1.171875,0.8125 H 1.28125 V -4.1875 H 0.609375 V 0 H 1.3125 Z m 0,0"
           id="path7608" />
      </g>
      <g
         id="use728"
         transform="translate(447.46078,153.1683)" />
      <g
         id="use730"
         transform="translate(449.68481,153.1683)">
        <path
           d="M 3.8125,-2.78125 C 3.765625,-3.5 3.34375,-4.296875 2.25,-4.296875 c -1.390625,0 -2.015625,1.03125 -2.015625,2.328125 0,1.203125 0.703125,2.09375 1.875,2.09375 C 3.34375,0.125 3.75,-0.8125 3.8125,-1.484375 H 3.140625 c -0.125,0.640625 -0.53125,1 -1,1 -0.96875,0 -1.15625,-0.890625 -1.15625,-1.609375 0,-0.75 0.28125,-1.578125 1.15625,-1.578125 0.59375,0 0.90625,0.328125 1,0.890625 z m 0,0"
           id="path7532" />
      </g>
      <g
         id="use732"
         transform="translate(453.68481,153.1683)">
        <path
           d="m 0.28125,-2.09375 c 0,1.078125 0.609375,2.203125 1.9375,2.203125 1.34375,0 1.953125,-1.125 1.953125,-2.203125 0,-1.078125 -0.609375,-2.203125 -1.953125,-2.203125 -1.328125,0 -1.9375,1.125 -1.9375,2.203125 z m 0.734375,0 c 0,-0.5625 0.203125,-1.609375 1.203125,-1.609375 1.015625,0 1.21875,1.046875 1.21875,1.609375 0,0.5625 -0.203125,1.59375 -1.21875,1.59375 -1,0 -1.203125,-1.03125 -1.203125,-1.59375 z m 0,0"
           id="path7568" />
      </g>
      <g
         id="use734"
         transform="translate(458.13281,153.1683)">
        <path
           d="M 3.984375,-5.75 H 3.28125 v 2.109375 L 3.265625,-3.59375 C 3.109375,-3.828125 2.78125,-4.296875 2.03125,-4.296875 c -1.125,0 -1.75,0.90625 -1.75,2.078125 0,1 0.421875,2.34375 1.84375,2.34375 0.40625,0 0.890625,-0.140625 1.1875,-0.703125 H 3.328125 V 0 h 0.65625 z m -2.96875,3.640625 c 0,-0.53125 0.046875,-1.5625 1.140625,-1.5625 1.015625,0 1.125,1.09375 1.125,1.78125 0,1.109375 -0.703125,1.40625 -1.140625,1.40625 -0.765625,0 -1.125,-0.703125 -1.125,-1.625 z m 0,0"
           id="path7350" />
      </g>
      <g
         id="use736"
         transform="translate(462.58081,153.1683)">
        <path
           d="M 3.375,-1.3125 C 3.34375,-1 2.953125,-0.484375 2.28125,-0.484375 c -0.796875,0 -1.203125,-0.5 -1.203125,-1.375 H 4.125 c 0,-1.484375 -0.59375,-2.4375 -1.796875,-2.4375 -1.390625,0 -2.015625,1.03125 -2.015625,2.328125 0,1.203125 0.703125,2.09375 1.875,2.09375 0.671875,0 0.953125,-0.171875 1.140625,-0.296875 0.53125,-0.34375 0.71875,-0.9375 0.75,-1.140625 z M 1.078125,-2.421875 c 0,-0.65625 0.5,-1.25 1.15625,-1.25 0.859375,0 1.125,0.59375 1.171875,1.25 z m 0,0"
           id="path7460" />
      </g>
    </g>
    <g
       fill="#231f20"
       fill-opacity="1"
       id="g762"
       transform="matrix(0.35277777,0,0,0.35277777,-24.49646,82.926856)">
      <g
         id="use740"
         transform="translate(430.57281,169.2963)">
        <path
           d="M 1.390625,-2.015625 2.28125,-2.875 4.296875,0 h 1 L 2.84375,-3.421875 5.234375,-5.75 h -1.0625 l -2.78125,2.796875 V -5.75 H 0.609375 V 0 h 0.78125 z m 0,0"
           id="path7342" />
      </g>
      <g
         id="use742"
         transform="translate(435.90881,169.2963)">
        <path
           d="M 3.375,-1.3125 C 3.34375,-1 2.953125,-0.484375 2.28125,-0.484375 c -0.796875,0 -1.203125,-0.5 -1.203125,-1.375 H 4.125 c 0,-1.484375 -0.59375,-2.4375 -1.796875,-2.4375 -1.390625,0 -2.015625,1.03125 -2.015625,2.328125 0,1.203125 0.703125,2.09375 1.875,2.09375 0.671875,0 0.953125,-0.171875 1.140625,-0.296875 0.53125,-0.34375 0.71875,-0.9375 0.75,-1.140625 z M 1.078125,-2.421875 c 0,-0.65625 0.5,-1.25 1.15625,-1.25 0.859375,0 1.125,0.59375 1.171875,1.25 z m 0,0"
           id="path7464" />
      </g>
      <g
         id="use744"
         transform="translate(440.35681,169.2963)">
        <path
           d="m 1.3125,-2.4375 c 0,-0.609375 0.421875,-1.109375 1.078125,-1.109375 H 2.65625 V -4.28125 c -0.0625,-0.015625 -0.09375,-0.015625 -0.1875,-0.015625 -0.53125,0 -0.890625,0.328125 -1.171875,0.8125 H 1.28125 V -4.1875 H 0.609375 V 0 H 1.3125 Z m 0,0"
           id="path7612" />
      </g>
      <g
         id="use746"
         transform="translate(443.02081,169.2963)">
        <path
           d="m 3.921875,-2.84375 c 0,-1.203125 -0.8125,-1.453125 -1.453125,-1.453125 -0.71875,0 -1.109375,0.484375 -1.265625,0.703125 H 1.1875 V -4.1875 H 0.515625 V 0 H 1.21875 v -2.28125 c 0,-1.140625 0.703125,-1.390625 1.109375,-1.390625 0.6875,0 0.890625,0.375 0.890625,1.09375 V 0 h 0.703125 z m 0,0"
           id="path7318" />
      </g>
      <g
         id="use748"
         transform="translate(447.46881,169.2963)">
        <path
           d="M 3.375,-1.3125 C 3.34375,-1 2.953125,-0.484375 2.28125,-0.484375 c -0.796875,0 -1.203125,-0.5 -1.203125,-1.375 H 4.125 c 0,-1.484375 -0.59375,-2.4375 -1.796875,-2.4375 -1.390625,0 -2.015625,1.03125 -2.015625,2.328125 0,1.203125 0.703125,2.09375 1.875,2.09375 0.671875,0 0.953125,-0.171875 1.140625,-0.296875 0.53125,-0.34375 0.71875,-0.9375 0.75,-1.140625 z M 1.078125,-2.421875 c 0,-0.65625 0.5,-1.25 1.15625,-1.25 0.859375,0 1.125,0.59375 1.171875,1.25 z m 0,0"
           id="path7468" />
      </g>
      <g
         id="use750"
         transform="translate(451.91681,169.2963)">
        <path
           d="M 1.234375,-5.75 H 0.53125 V 0 h 0.703125 z m 0,0"
           id="path7310" />
      </g>
      <g
         id="use752"
         transform="translate(453.69281,169.2963)" />
      <g
         id="use754"
         transform="translate(455.91681,169.2963)">
        <path
           d="M 3.8125,-2.78125 C 3.765625,-3.5 3.34375,-4.296875 2.25,-4.296875 c -1.390625,0 -2.015625,1.03125 -2.015625,2.328125 0,1.203125 0.703125,2.09375 1.875,2.09375 C 3.34375,0.125 3.75,-0.8125 3.8125,-1.484375 H 3.140625 c -0.125,0.640625 -0.53125,1 -1,1 -0.96875,0 -1.15625,-0.890625 -1.15625,-1.609375 0,-0.75 0.28125,-1.578125 1.15625,-1.578125 0.59375,0 0.90625,0.328125 1,0.890625 z m 0,0"
           id="path7536" />
      </g>
      <g
         id="use756"
         transform="translate(459.91681,169.2963)">
        <path
           d="m 0.28125,-2.09375 c 0,1.078125 0.609375,2.203125 1.9375,2.203125 1.34375,0 1.953125,-1.125 1.953125,-2.203125 0,-1.078125 -0.609375,-2.203125 -1.953125,-2.203125 -1.328125,0 -1.9375,1.125 -1.9375,2.203125 z m 0.734375,0 c 0,-0.5625 0.203125,-1.609375 1.203125,-1.609375 1.015625,0 1.21875,1.046875 1.21875,1.609375 0,0.5625 -0.203125,1.59375 -1.21875,1.59375 -1,0 -1.203125,-1.03125 -1.203125,-1.59375 z m 0,0"
           id="path7572" />
      </g>
      <g
         id="use758"
         transform="translate(464.36481,169.2963)">
        <path
           d="M 3.984375,-5.75 H 3.28125 v 2.109375 L 3.265625,-3.59375 C 3.109375,-3.828125 2.78125,-4.296875 2.03125,-4.296875 c -1.125,0 -1.75,0.90625 -1.75,2.078125 0,1 0.421875,2.34375 1.84375,2.34375 0.40625,0 0.890625,-0.140625 1.1875,-0.703125 H 3.328125 V 0 h 0.65625 z m -2.96875,3.640625 c 0,-0.53125 0.046875,-1.5625 1.140625,-1.5625 1.015625,0 1.125,1.09375 1.125,1.78125 0,1.109375 -0.703125,1.40625 -1.140625,1.40625 -0.765625,0 -1.125,-0.703125 -1.125,-1.625 z m 0,0"
           id="path7354" />
      </g>
      <g
         id="use760"
         transform="translate(468.81281,169.2963)">
        <path
           d="M 3.375,-1.3125 C 3.34375,-1 2.953125,-0.484375 2.28125,-0.484375 c -0.796875,0 -1.203125,-0.5 -1.203125,-1.375 H 4.125 c 0,-1.484375 -0.59375,-2.4375 -1.796875,-2.4375 -1.390625,0 -2.015625,1.03125 -2.015625,2.328125 0,1.203125 0.703125,2.09375 1.875,2.09375 0.671875,0 0.953125,-0.171875 1.140625,-0.296875 0.53125,-0.34375 0.71875,-0.9375 0.75,-1.140625 z M 1.078125,-2.421875 c 0,-0.65625 0.5,-1.25 1.15625,-1.25 0.859375,0 1.125,0.59375 1.171875,1.25 z m 0,0"
           id="path7472" />
      </g>
    </g>
    <g
       fill="#231f20"
       fill-opacity="1"
       id="g786"
       transform="matrix(0.35277777,0,0,0.35277777,-24.49646,82.926856)">
      <g
         id="use764"
         transform="translate(430.57281,202.57629)">
        <path
           d="M 1.390625,-2.015625 2.28125,-2.875 4.296875,0 h 1 L 2.84375,-3.421875 5.234375,-5.75 h -1.0625 l -2.78125,2.796875 V -5.75 H 0.609375 V 0 h 0.78125 z m 0,0"
           id="path7346" />
      </g>
      <g
         id="use766"
         transform="translate(435.90881,202.57629)">
        <path
           d="M 3.375,-1.3125 C 3.34375,-1 2.953125,-0.484375 2.28125,-0.484375 c -0.796875,0 -1.203125,-0.5 -1.203125,-1.375 H 4.125 c 0,-1.484375 -0.59375,-2.4375 -1.796875,-2.4375 -1.390625,0 -2.015625,1.03125 -2.015625,2.328125 0,1.203125 0.703125,2.09375 1.875,2.09375 0.671875,0 0.953125,-0.171875 1.140625,-0.296875 0.53125,-0.34375 0.71875,-0.9375 0.75,-1.140625 z M 1.078125,-2.421875 c 0,-0.65625 0.5,-1.25 1.15625,-1.25 0.859375,0 1.125,0.59375 1.171875,1.25 z m 0,0"
           id="path7476" />
      </g>
      <g
         id="use768"
         transform="translate(440.35681,202.57629)">
        <path
           d="m 1.3125,-2.4375 c 0,-0.609375 0.421875,-1.109375 1.078125,-1.109375 H 2.65625 V -4.28125 c -0.0625,-0.015625 -0.09375,-0.015625 -0.1875,-0.015625 -0.53125,0 -0.890625,0.328125 -1.171875,0.8125 H 1.28125 V -4.1875 H 0.609375 V 0 H 1.3125 Z m 0,0"
           id="path7616" />
      </g>
      <g
         id="use770"
         transform="translate(443.02081,202.57629)">
        <path
           d="m 3.921875,-2.84375 c 0,-1.203125 -0.8125,-1.453125 -1.453125,-1.453125 -0.71875,0 -1.109375,0.484375 -1.265625,0.703125 H 1.1875 V -4.1875 H 0.515625 V 0 H 1.21875 v -2.28125 c 0,-1.140625 0.703125,-1.390625 1.109375,-1.390625 0.6875,0 0.890625,0.375 0.890625,1.09375 V 0 h 0.703125 z m 0,0"
           id="path7322" />
      </g>
      <g
         id="use772"
         transform="translate(447.46881,202.57629)">
        <path
           d="M 3.375,-1.3125 C 3.34375,-1 2.953125,-0.484375 2.28125,-0.484375 c -0.796875,0 -1.203125,-0.5 -1.203125,-1.375 H 4.125 c 0,-1.484375 -0.59375,-2.4375 -1.796875,-2.4375 -1.390625,0 -2.015625,1.03125 -2.015625,2.328125 0,1.203125 0.703125,2.09375 1.875,2.09375 0.671875,0 0.953125,-0.171875 1.140625,-0.296875 0.53125,-0.34375 0.71875,-0.9375 0.75,-1.140625 z M 1.078125,-2.421875 c 0,-0.65625 0.5,-1.25 1.15625,-1.25 0.859375,0 1.125,0.59375 1.171875,1.25 z m 0,0"
           id="path7480" />
      </g>
      <g
         id="use774"
         transform="translate(451.91681,202.57629)">
        <path
           d="M 1.234375,-5.75 H 0.53125 V 0 h 0.703125 z m 0,0"
           id="path7314" />
      </g>
      <g
         id="use776"
         transform="translate(453.69281,202.57629)" />
      <g
         id="use778"
         transform="translate(455.91681,202.57629)">
        <path
           d="M 3.8125,-2.78125 C 3.765625,-3.5 3.34375,-4.296875 2.25,-4.296875 c -1.390625,0 -2.015625,1.03125 -2.015625,2.328125 0,1.203125 0.703125,2.09375 1.875,2.09375 C 3.34375,0.125 3.75,-0.8125 3.8125,-1.484375 H 3.140625 c -0.125,0.640625 -0.53125,1 -1,1 -0.96875,0 -1.15625,-0.890625 -1.15625,-1.609375 0,-0.75 0.28125,-1.578125 1.15625,-1.578125 0.59375,0 0.90625,0.328125 1,0.890625 z m 0,0"
           id="path7540" />
      </g>
      <g
         id="use780"
         transform="translate(459.91681,202.57629)">
        <path
           d="m 0.28125,-2.09375 c 0,1.078125 0.609375,2.203125 1.9375,2.203125 1.34375,0 1.953125,-1.125 1.953125,-2.203125 0,-1.078125 -0.609375,-2.203125 -1.953125,-2.203125 -1.328125,0 -1.9375,1.125 -1.9375,2.203125 z m 0.734375,0 c 0,-0.5625 0.203125,-1.609375 1.203125,-1.609375 1.015625,0 1.21875,1.046875 1.21875,1.609375 0,0.5625 -0.203125,1.59375 -1.21875,1.59375 -1,0 -1.203125,-1.03125 -1.203125,-1.59375 z m 0,0"
           id="path7576" />
      </g>
      <g
         id="use782"
         transform="translate(464.36481,202.57629)">
        <path
           d="M 3.984375,-5.75 H 3.28125 v 2.109375 L 3.265625,-3.59375 C 3.109375,-3.828125 2.78125,-4.296875 2.03125,-4.296875 c -1.125,0 -1.75,0.90625 -1.75,2.078125 0,1 0.421875,2.34375 1.84375,2.34375 0.40625,0 0.890625,-0.140625 1.1875,-0.703125 H 3.328125 V 0 h 0.65625 z m -2.96875,3.640625 c 0,-0.53125 0.046875,-1.5625 1.140625,-1.5625 1.015625,0 1.125,1.09375 1.125,1.78125 0,1.109375 -0.703125,1.40625 -1.140625,1.40625 -0.765625,0 -1.125,-0.703125 -1.125,-1.625 z m 0,0"
           id="path7358" />
      </g>
      <g
         id="use784"
         transform="translate(468.81281,202.57629)">
        <path
           d="M 3.375,-1.3125 C 3.34375,-1 2.953125,-0.484375 2.28125,-0.484375 c -0.796875,0 -1.203125,-0.5 -1.203125,-1.375 H 4.125 c 0,-1.484375 -0.59375,-2.4375 -1.796875,-2.4375 -1.390625,0 -2.015625,1.03125 -2.015625,2.328125 0,1.203125 0.703125,2.09375 1.875,2.09375 0.671875,0 0.953125,-0.171875 1.140625,-0.296875 0.53125,-0.34375 0.71875,-0.9375 0.75,-1.140625 z M 1.078125,-2.421875 c 0,-0.65625 0.5,-1.25 1.15625,-1.25 0.859375,0 1.125,0.59375 1.171875,1.25 z m 0,0"
           id="path7484" />
      </g>
    </g>
    <g
       fill="#231f20"
       fill-opacity="1"
       id="g806"
       transform="matrix(0.35277777,0,0,0.35277777,-24.49646,82.926856)">
      <g
         id="use788"
         transform="translate(430.57281,186.4483)">
        <path
           d="m 4.375,-5.75 v 3.640625 c 0,1.25 -0.796875,1.578125 -1.515625,1.578125 -0.6875,0 -1.453125,-0.34375 -1.453125,-1.59375 V -5.75 H 0.625 v 3.84375 c 0,1.0625 0.671875,2.0625 2.21875,2.0625 1.578125,0 2.3125,-1 2.3125,-2.171875 V -5.75 Z m 0,0"
           id="path7374" />
      </g>
      <g
         id="use790"
         transform="translate(436.34879,186.4483)">
        <path
           d="m 3.578125,-2.984375 c 0,-0.21875 -0.109375,-1.3125 -1.609375,-1.3125 -0.8125,0 -1.578125,0.40625 -1.578125,1.328125 0,0.578125 0.390625,0.875 0.96875,1.015625 L 2.171875,-1.75 c 0.609375,0.15625 0.84375,0.265625 0.84375,0.59375 0,0.46875 -0.46875,0.671875 -0.96875,0.671875 -0.984375,0 -1.09375,-0.53125 -1.109375,-0.859375 H 0.25 c 0.03125,0.5 0.15625,1.46875 1.8125,1.46875 0.9375,0 1.65625,-0.53125 1.65625,-1.390625 0,-0.5625 -0.3125,-0.890625 -1.1875,-1.109375 L 1.828125,-2.546875 c -0.546875,-0.140625 -0.75,-0.21875 -0.75,-0.5625 0,-0.515625 0.609375,-0.59375 0.828125,-0.59375 0.890625,0 0.984375,0.453125 0.984375,0.71875 z m 0,0"
           id="path7428" />
      </g>
      <g
         id="use792"
         transform="translate(440.34879,186.4483)">
        <path
           d="M 3.375,-1.3125 C 3.34375,-1 2.953125,-0.484375 2.28125,-0.484375 c -0.796875,0 -1.203125,-0.5 -1.203125,-1.375 H 4.125 c 0,-1.484375 -0.59375,-2.4375 -1.796875,-2.4375 -1.390625,0 -2.015625,1.03125 -2.015625,2.328125 0,1.203125 0.703125,2.09375 1.875,2.09375 0.671875,0 0.953125,-0.171875 1.140625,-0.296875 0.53125,-0.34375 0.71875,-0.9375 0.75,-1.140625 z M 1.078125,-2.421875 c 0,-0.65625 0.5,-1.25 1.15625,-1.25 0.859375,0 1.125,0.59375 1.171875,1.25 z m 0,0"
           id="path7488" />
      </g>
      <g
         id="use794"
         transform="translate(444.79681,186.4483)">
        <path
           d="m 1.3125,-2.4375 c 0,-0.609375 0.421875,-1.109375 1.078125,-1.109375 H 2.65625 V -4.28125 c -0.0625,-0.015625 -0.09375,-0.015625 -0.1875,-0.015625 -0.53125,0 -0.890625,0.328125 -1.171875,0.8125 H 1.28125 V -4.1875 H 0.609375 V 0 H 1.3125 Z m 0,0"
           id="path7620" />
      </g>
      <g
         id="use796"
         transform="translate(447.46078,186.4483)" />
      <g
         id="use798"
         transform="translate(449.68481,186.4483)">
        <path
           d="M 3.8125,-2.78125 C 3.765625,-3.5 3.34375,-4.296875 2.25,-4.296875 c -1.390625,0 -2.015625,1.03125 -2.015625,2.328125 0,1.203125 0.703125,2.09375 1.875,2.09375 C 3.34375,0.125 3.75,-0.8125 3.8125,-1.484375 H 3.140625 c -0.125,0.640625 -0.53125,1 -1,1 -0.96875,0 -1.15625,-0.890625 -1.15625,-1.609375 0,-0.75 0.28125,-1.578125 1.15625,-1.578125 0.59375,0 0.90625,0.328125 1,0.890625 z m 0,0"
           id="path7544" />
      </g>
      <g
         id="use800"
         transform="translate(453.68481,186.4483)">
        <path
           d="m 0.28125,-2.09375 c 0,1.078125 0.609375,2.203125 1.9375,2.203125 1.34375,0 1.953125,-1.125 1.953125,-2.203125 0,-1.078125 -0.609375,-2.203125 -1.953125,-2.203125 -1.328125,0 -1.9375,1.125 -1.9375,2.203125 z m 0.734375,0 c 0,-0.5625 0.203125,-1.609375 1.203125,-1.609375 1.015625,0 1.21875,1.046875 1.21875,1.609375 0,0.5625 -0.203125,1.59375 -1.21875,1.59375 -1,0 -1.203125,-1.03125 -1.203125,-1.59375 z m 0,0"
           id="path7580" />
      </g>
      <g
         id="use802"
         transform="translate(458.13281,186.4483)">
        <path
           d="M 3.984375,-5.75 H 3.28125 v 2.109375 L 3.265625,-3.59375 C 3.109375,-3.828125 2.78125,-4.296875 2.03125,-4.296875 c -1.125,0 -1.75,0.90625 -1.75,2.078125 0,1 0.421875,2.34375 1.84375,2.34375 0.40625,0 0.890625,-0.140625 1.1875,-0.703125 H 3.328125 V 0 h 0.65625 z m -2.96875,3.640625 c 0,-0.53125 0.046875,-1.5625 1.140625,-1.5625 1.015625,0 1.125,1.09375 1.125,1.78125 0,1.109375 -0.703125,1.40625 -1.140625,1.40625 -0.765625,0 -1.125,-0.703125 -1.125,-1.625 z m 0,0"
           id="path7362" />
      </g>
      <g
         id="use804"
         transform="translate(462.58081,186.4483)">
        <path
           d="M 3.375,-1.3125 C 3.34375,-1 2.953125,-0.484375 2.28125,-0.484375 c -0.796875,0 -1.203125,-0.5 -1.203125,-1.375 H 4.125 c 0,-1.484375 -0.59375,-2.4375 -1.796875,-2.4375 -1.390625,0 -2.015625,1.03125 -2.015625,2.328125 0,1.203125 0.703125,2.09375 1.875,2.09375 0.671875,0 0.953125,-0.171875 1.140625,-0.296875 0.53125,-0.34375 0.71875,-0.9375 0.75,-1.140625 z M 1.078125,-2.421875 c 0,-0.65625 0.5,-1.25 1.15625,-1.25 0.859375,0 1.125,0.59375 1.171875,1.25 z m 0,0"
           id="path7492" />
      </g>
    </g>
    <g
       fill="#231f20"
       fill-opacity="1"
       id="g826"
       transform="matrix(0.35277777,0,0,0.35277777,-24.49646,82.926856)">
      <g
         id="use808"
         transform="translate(430.57281,218.0163)">
        <path
           d="m 4.375,-5.75 v 3.640625 c 0,1.25 -0.796875,1.578125 -1.515625,1.578125 -0.6875,0 -1.453125,-0.34375 -1.453125,-1.59375 V -5.75 H 0.625 v 3.84375 c 0,1.0625 0.671875,2.0625 2.21875,2.0625 1.578125,0 2.3125,-1 2.3125,-2.171875 V -5.75 Z m 0,0"
           id="path7378" />
      </g>
      <g
         id="use810"
         transform="translate(436.34879,218.0163)">
        <path
           d="m 3.578125,-2.984375 c 0,-0.21875 -0.109375,-1.3125 -1.609375,-1.3125 -0.8125,0 -1.578125,0.40625 -1.578125,1.328125 0,0.578125 0.390625,0.875 0.96875,1.015625 L 2.171875,-1.75 c 0.609375,0.15625 0.84375,0.265625 0.84375,0.59375 0,0.46875 -0.46875,0.671875 -0.96875,0.671875 -0.984375,0 -1.09375,-0.53125 -1.109375,-0.859375 H 0.25 c 0.03125,0.5 0.15625,1.46875 1.8125,1.46875 0.9375,0 1.65625,-0.53125 1.65625,-1.390625 0,-0.5625 -0.3125,-0.890625 -1.1875,-1.109375 L 1.828125,-2.546875 c -0.546875,-0.140625 -0.75,-0.21875 -0.75,-0.5625 0,-0.515625 0.609375,-0.59375 0.828125,-0.59375 0.890625,0 0.984375,0.453125 0.984375,0.71875 z m 0,0"
           id="path7432" />
      </g>
      <g
         id="use812"
         transform="translate(440.34879,218.0163)">
        <path
           d="M 3.375,-1.3125 C 3.34375,-1 2.953125,-0.484375 2.28125,-0.484375 c -0.796875,0 -1.203125,-0.5 -1.203125,-1.375 H 4.125 c 0,-1.484375 -0.59375,-2.4375 -1.796875,-2.4375 -1.390625,0 -2.015625,1.03125 -2.015625,2.328125 0,1.203125 0.703125,2.09375 1.875,2.09375 0.671875,0 0.953125,-0.171875 1.140625,-0.296875 0.53125,-0.34375 0.71875,-0.9375 0.75,-1.140625 z M 1.078125,-2.421875 c 0,-0.65625 0.5,-1.25 1.15625,-1.25 0.859375,0 1.125,0.59375 1.171875,1.25 z m 0,0"
           id="path7496" />
      </g>
      <g
         id="use814"
         transform="translate(444.79681,218.0163)">
        <path
           d="m 1.3125,-2.4375 c 0,-0.609375 0.421875,-1.109375 1.078125,-1.109375 H 2.65625 V -4.28125 c -0.0625,-0.015625 -0.09375,-0.015625 -0.1875,-0.015625 -0.53125,0 -0.890625,0.328125 -1.171875,0.8125 H 1.28125 V -4.1875 H 0.609375 V 0 H 1.3125 Z m 0,0"
           id="path7624" />
      </g>
      <g
         id="use816"
         transform="translate(447.46078,218.0163)" />
      <g
         id="use818"
         transform="translate(449.68481,218.0163)">
        <path
           d="M 3.8125,-2.78125 C 3.765625,-3.5 3.34375,-4.296875 2.25,-4.296875 c -1.390625,0 -2.015625,1.03125 -2.015625,2.328125 0,1.203125 0.703125,2.09375 1.875,2.09375 C 3.34375,0.125 3.75,-0.8125 3.8125,-1.484375 H 3.140625 c -0.125,0.640625 -0.53125,1 -1,1 -0.96875,0 -1.15625,-0.890625 -1.15625,-1.609375 0,-0.75 0.28125,-1.578125 1.15625,-1.578125 0.59375,0 0.90625,0.328125 1,0.890625 z m 0,0"
           id="path7548" />
      </g>
      <g
         id="use820"
         transform="translate(453.68481,218.0163)">
        <path
           d="m 0.28125,-2.09375 c 0,1.078125 0.609375,2.203125 1.9375,2.203125 1.34375,0 1.953125,-1.125 1.953125,-2.203125 0,-1.078125 -0.609375,-2.203125 -1.953125,-2.203125 -1.328125,0 -1.9375,1.125 -1.9375,2.203125 z m 0.734375,0 c 0,-0.5625 0.203125,-1.609375 1.203125,-1.609375 1.015625,0 1.21875,1.046875 1.21875,1.609375 0,0.5625 -0.203125,1.59375 -1.21875,1.59375 -1,0 -1.203125,-1.03125 -1.203125,-1.59375 z m 0,0"
           id="path7584" />
      </g>
      <g
         id="use822"
         transform="translate(458.13281,218.0163)">
        <path
           d="M 3.984375,-5.75 H 3.28125 v 2.109375 L 3.265625,-3.59375 C 3.109375,-3.828125 2.78125,-4.296875 2.03125,-4.296875 c -1.125,0 -1.75,0.90625 -1.75,2.078125 0,1 0.421875,2.34375 1.84375,2.34375 0.40625,0 0.890625,-0.140625 1.1875,-0.703125 H 3.328125 V 0 h 0.65625 z m -2.96875,3.640625 c 0,-0.53125 0.046875,-1.5625 1.140625,-1.5625 1.015625,0 1.125,1.09375 1.125,1.78125 0,1.109375 -0.703125,1.40625 -1.140625,1.40625 -0.765625,0 -1.125,-0.703125 -1.125,-1.625 z m 0,0"
           id="path7366" />
      </g>
      <g
         id="use824"
         transform="translate(462.58081,218.0163)">
        <path
           d="M 3.375,-1.3125 C 3.34375,-1 2.953125,-0.484375 2.28125,-0.484375 c -0.796875,0 -1.203125,-0.5 -1.203125,-1.375 H 4.125 c 0,-1.484375 -0.59375,-2.4375 -1.796875,-2.4375 -1.390625,0 -2.015625,1.03125 -2.015625,2.328125 0,1.203125 0.703125,2.09375 1.875,2.09375 0.671875,0 0.953125,-0.171875 1.140625,-0.296875 0.53125,-0.34375 0.71875,-0.9375 0.75,-1.140625 z M 1.078125,-2.421875 c 0,-0.65625 0.5,-1.25 1.15625,-1.25 0.859375,0 1.125,0.59375 1.171875,1.25 z m 0,0"
           id="path7500" />
      </g>
    </g>
    <g
       fill="#231f20"
       fill-opacity="1"
       id="g842"
       transform="matrix(0.35277777,0,0,0.35277777,-24.49646,82.926856)">
      <g
         id="use828"
         transform="translate(487.27679,165.1763)">
        <path
           d="m 5.390625,-4.015625 c -0.109375,-0.953125 -0.875,-1.875 -2.359375,-1.875 -1.671875,0 -2.671875,1.21875 -2.671875,2.984375 0,2.203125 1.265625,3.0625 2.578125,3.0625 0.4375,0 2.1875,-0.09375 2.515625,-2.265625 h -0.75 C 4.4375,-0.78125 3.5625,-0.53125 3.0625,-0.53125 c -1.4375,0 -1.90625,-1.046875 -1.90625,-2.390625 0,-1.515625 0.828125,-2.28125 1.875,-2.28125 0.546875,0 1.390625,0.171875 1.609375,1.1875 z m 0,0"
           id="path7302" />
      </g>
      <g
         id="use830"
         transform="translate(493.0528,165.1763)">
        <path
           d="m 0.28125,-2.09375 c 0,1.078125 0.609375,2.203125 1.9375,2.203125 1.34375,0 1.953125,-1.125 1.953125,-2.203125 0,-1.078125 -0.609375,-2.203125 -1.953125,-2.203125 -1.328125,0 -1.9375,1.125 -1.9375,2.203125 z m 0.734375,0 c 0,-0.5625 0.203125,-1.609375 1.203125,-1.609375 1.015625,0 1.21875,1.046875 1.21875,1.609375 0,0.5625 -0.203125,1.59375 -1.21875,1.59375 -1,0 -1.203125,-1.03125 -1.203125,-1.59375 z m 0,0"
           id="path7588" />
      </g>
      <g
         id="use832"
         transform="translate(497.50079,165.1763)">
        <path
           d="m 3.921875,-2.84375 c 0,-1.203125 -0.8125,-1.453125 -1.453125,-1.453125 -0.71875,0 -1.109375,0.484375 -1.265625,0.703125 H 1.1875 V -4.1875 H 0.515625 V 0 H 1.21875 v -2.28125 c 0,-1.140625 0.703125,-1.390625 1.109375,-1.390625 0.6875,0 0.890625,0.375 0.890625,1.09375 V 0 h 0.703125 z m 0,0"
           id="path7326" />
      </g>
      <g
         id="use834"
         transform="translate(501.94879,165.1763)">
        <path
           d="M 2.0625,-3.59375 V -4.1875 H 1.390625 V -5.359375 H 0.6875 V -4.1875 H 0.109375 v 0.59375 H 0.6875 v 2.75 c 0,0.5 0.140625,0.90625 0.84375,0.90625 0.0625,0 0.265625,-0.03125 0.53125,-0.0625 v -0.546875 h -0.25 c -0.15625,0 -0.421875,0 -0.421875,-0.328125 v -2.71875 z m 0,0"
           id="path7266" />
      </g>
      <g
         id="use836"
         transform="translate(504.17279,165.1763)">
        <path
           d="M 3.375,-1.3125 C 3.34375,-1 2.953125,-0.484375 2.28125,-0.484375 c -0.796875,0 -1.203125,-0.5 -1.203125,-1.375 H 4.125 c 0,-1.484375 -0.59375,-2.4375 -1.796875,-2.4375 -1.390625,0 -2.015625,1.03125 -2.015625,2.328125 0,1.203125 0.703125,2.09375 1.875,2.09375 0.671875,0 0.953125,-0.171875 1.140625,-0.296875 0.53125,-0.34375 0.71875,-0.9375 0.75,-1.140625 z M 1.078125,-2.421875 c 0,-0.65625 0.5,-1.25 1.15625,-1.25 0.859375,0 1.125,0.59375 1.171875,1.25 z m 0,0"
           id="path7504" />
      </g>
      <g
         id="use838"
         transform="translate(508.62079,165.1763)">
        <path
           d="M 2.453125,-2.15625 3.859375,-4.1875 H 3 L 2.03125,-2.71875 1.0625,-4.1875 H 0.15625 L 1.5625,-2.15625 0.09375,0 h 0.875 L 1.984375,-1.578125 3.03125,0 h 0.890625 z m 0,0"
           id="path7258" />
      </g>
      <g
         id="use840"
         transform="translate(512.62079,165.1763)">
        <path
           d="M 2.0625,-3.59375 V -4.1875 H 1.390625 V -5.359375 H 0.6875 V -4.1875 H 0.109375 v 0.59375 H 0.6875 v 2.75 c 0,0.5 0.140625,0.90625 0.84375,0.90625 0.0625,0 0.265625,-0.03125 0.53125,-0.0625 v -0.546875 h -0.25 c -0.15625,0 -0.421875,0 -0.421875,-0.328125 v -2.71875 z m 0,0"
           id="path7270" />
      </g>
    </g>
    <g
       fill="#231f20"
       fill-opacity="1"
       id="g856"
       transform="matrix(0.35277777,0,0,0.35277777,-24.49646,82.926856)">
      <g
         id="use844"
         transform="translate(487.27679,174.1763)">
        <path
           d="m 3.578125,-2.984375 c 0,-0.21875 -0.109375,-1.3125 -1.609375,-1.3125 -0.8125,0 -1.578125,0.40625 -1.578125,1.328125 0,0.578125 0.390625,0.875 0.96875,1.015625 L 2.171875,-1.75 c 0.609375,0.15625 0.84375,0.265625 0.84375,0.59375 0,0.46875 -0.46875,0.671875 -0.96875,0.671875 -0.984375,0 -1.09375,-0.53125 -1.109375,-0.859375 H 0.25 c 0.03125,0.5 0.15625,1.46875 1.8125,1.46875 0.9375,0 1.65625,-0.53125 1.65625,-1.390625 0,-0.5625 -0.3125,-0.890625 -1.1875,-1.109375 L 1.828125,-2.546875 c -0.546875,-0.140625 -0.75,-0.21875 -0.75,-0.5625 0,-0.515625 0.609375,-0.59375 0.828125,-0.59375 0.890625,0 0.984375,0.453125 0.984375,0.71875 z m 0,0"
           id="path7436" />
      </g>
      <g
         id="use846"
         transform="translate(491.27679,174.1763)">
        <path
           d="M 2.859375,-3.234375 H 2.875 L 3.734375,0 h 0.71875 l 1.21875,-4.1875 H 4.96875 L 4.125,-0.890625 H 4.109375 L 3.28125,-4.1875 H 2.5 L 1.703125,-0.890625 H 1.6875 L 0.875,-4.1875 H 0.109375 L 1.3125,0 h 0.734375 z m 0,0"
           id="path7250" />
      </g>
      <g
         id="use848"
         transform="translate(497.0528,174.1763)">
        <path
           d="M 1.234375,-4.1875 H 0.53125 V 0 h 0.703125 z m 0,-0.75 V -5.75 H 0.53125 v 0.8125 z m 0,0"
           id="path7230" />
      </g>
      <g
         id="use850"
         transform="translate(498.8288,174.1763)">
        <path
           d="M 2.0625,-3.59375 V -4.1875 H 1.390625 V -5.359375 H 0.6875 V -4.1875 H 0.109375 v 0.59375 H 0.6875 v 2.75 c 0,0.5 0.140625,0.90625 0.84375,0.90625 0.0625,0 0.265625,-0.03125 0.53125,-0.0625 v -0.546875 h -0.25 c -0.15625,0 -0.421875,0 -0.421875,-0.328125 v -2.71875 z m 0,0"
           id="path7274" />
      </g>
      <g
         id="use852"
         transform="translate(501.0528,174.1763)">
        <path
           d="M 3.8125,-2.78125 C 3.765625,-3.5 3.34375,-4.296875 2.25,-4.296875 c -1.390625,0 -2.015625,1.03125 -2.015625,2.328125 0,1.203125 0.703125,2.09375 1.875,2.09375 C 3.34375,0.125 3.75,-0.8125 3.8125,-1.484375 H 3.140625 c -0.125,0.640625 -0.53125,1 -1,1 -0.96875,0 -1.15625,-0.890625 -1.15625,-1.609375 0,-0.75 0.28125,-1.578125 1.15625,-1.578125 0.59375,0 0.90625,0.328125 1,0.890625 z m 0,0"
           id="path7552" />
      </g>
      <g
         id="use854"
         transform="translate(505.0528,174.1763)">
        <path
           d="m 3.921875,-2.84375 c 0,-1.203125 -0.8125,-1.453125 -1.453125,-1.453125 -0.671875,0 -1.03125,0.40625 -1.234375,0.671875 H 1.21875 V -5.75 H 0.515625 V 0 H 1.21875 v -2.28125 c 0,-1.0625 0.59375,-1.390625 1.171875,-1.390625 0.671875,0 0.828125,0.375 0.828125,0.9375 V 0 h 0.703125 z m 0,0"
           id="path7222" />
      </g>
    </g>
    <g
       fill="#231f20"
       fill-opacity="1"
       id="g872"
       transform="matrix(0.35277777,0,0,0.35277777,-24.49646,82.926856)">
      <g
         id="use858"
         transform="translate(487.27679,197.4323)">
        <path
           d="m 5.390625,-4.015625 c -0.109375,-0.953125 -0.875,-1.875 -2.359375,-1.875 -1.671875,0 -2.671875,1.21875 -2.671875,2.984375 0,2.203125 1.265625,3.0625 2.578125,3.0625 0.4375,0 2.1875,-0.09375 2.515625,-2.265625 h -0.75 C 4.4375,-0.78125 3.5625,-0.53125 3.0625,-0.53125 c -1.4375,0 -1.90625,-1.046875 -1.90625,-2.390625 0,-1.515625 0.828125,-2.28125 1.875,-2.28125 0.546875,0 1.390625,0.171875 1.609375,1.1875 z m 0,0"
           id="path7306" />
      </g>
      <g
         id="use860"
         transform="translate(493.0528,197.4323)">
        <path
           d="m 0.28125,-2.09375 c 0,1.078125 0.609375,2.203125 1.9375,2.203125 1.34375,0 1.953125,-1.125 1.953125,-2.203125 0,-1.078125 -0.609375,-2.203125 -1.953125,-2.203125 -1.328125,0 -1.9375,1.125 -1.9375,2.203125 z m 0.734375,0 c 0,-0.5625 0.203125,-1.609375 1.203125,-1.609375 1.015625,0 1.21875,1.046875 1.21875,1.609375 0,0.5625 -0.203125,1.59375 -1.21875,1.59375 -1,0 -1.203125,-1.03125 -1.203125,-1.59375 z m 0,0"
           id="path7592" />
      </g>
      <g
         id="use862"
         transform="translate(497.50079,197.4323)">
        <path
           d="m 3.921875,-2.84375 c 0,-1.203125 -0.8125,-1.453125 -1.453125,-1.453125 -0.71875,0 -1.109375,0.484375 -1.265625,0.703125 H 1.1875 V -4.1875 H 0.515625 V 0 H 1.21875 v -2.28125 c 0,-1.140625 0.703125,-1.390625 1.109375,-1.390625 0.6875,0 0.890625,0.375 0.890625,1.09375 V 0 h 0.703125 z m 0,0"
           id="path7330" />
      </g>
      <g
         id="use864"
         transform="translate(501.94879,197.4323)">
        <path
           d="M 2.0625,-3.59375 V -4.1875 H 1.390625 V -5.359375 H 0.6875 V -4.1875 H 0.109375 v 0.59375 H 0.6875 v 2.75 c 0,0.5 0.140625,0.90625 0.84375,0.90625 0.0625,0 0.265625,-0.03125 0.53125,-0.0625 v -0.546875 h -0.25 c -0.15625,0 -0.421875,0 -0.421875,-0.328125 v -2.71875 z m 0,0"
           id="path7278" />
      </g>
      <g
         id="use866"
         transform="translate(504.17279,197.4323)">
        <path
           d="M 3.375,-1.3125 C 3.34375,-1 2.953125,-0.484375 2.28125,-0.484375 c -0.796875,0 -1.203125,-0.5 -1.203125,-1.375 H 4.125 c 0,-1.484375 -0.59375,-2.4375 -1.796875,-2.4375 -1.390625,0 -2.015625,1.03125 -2.015625,2.328125 0,1.203125 0.703125,2.09375 1.875,2.09375 0.671875,0 0.953125,-0.171875 1.140625,-0.296875 0.53125,-0.34375 0.71875,-0.9375 0.75,-1.140625 z M 1.078125,-2.421875 c 0,-0.65625 0.5,-1.25 1.15625,-1.25 0.859375,0 1.125,0.59375 1.171875,1.25 z m 0,0"
           id="path7508" />
      </g>
      <g
         id="use868"
         transform="translate(508.62079,197.4323)">
        <path
           d="M 2.453125,-2.15625 3.859375,-4.1875 H 3 L 2.03125,-2.71875 1.0625,-4.1875 H 0.15625 L 1.5625,-2.15625 0.09375,0 h 0.875 L 1.984375,-1.578125 3.03125,0 h 0.890625 z m 0,0"
           id="path7262" />
      </g>
      <g
         id="use870"
         transform="translate(512.62079,197.4323)">
        <path
           d="M 2.0625,-3.59375 V -4.1875 H 1.390625 V -5.359375 H 0.6875 V -4.1875 H 0.109375 v 0.59375 H 0.6875 v 2.75 c 0,0.5 0.140625,0.90625 0.84375,0.90625 0.0625,0 0.265625,-0.03125 0.53125,-0.0625 v -0.546875 h -0.25 c -0.15625,0 -0.421875,0 -0.421875,-0.328125 v -2.71875 z m 0,0"
           id="path7282" />
      </g>
    </g>
    <g
       fill="#231f20"
       fill-opacity="1"
       id="g886"
       transform="matrix(0.35277777,0,0,0.35277777,-24.49646,82.926856)">
      <g
         id="use874"
         transform="translate(487.27679,206.4323)">
        <path
           d="m 3.578125,-2.984375 c 0,-0.21875 -0.109375,-1.3125 -1.609375,-1.3125 -0.8125,0 -1.578125,0.40625 -1.578125,1.328125 0,0.578125 0.390625,0.875 0.96875,1.015625 L 2.171875,-1.75 c 0.609375,0.15625 0.84375,0.265625 0.84375,0.59375 0,0.46875 -0.46875,0.671875 -0.96875,0.671875 -0.984375,0 -1.09375,-0.53125 -1.109375,-0.859375 H 0.25 c 0.03125,0.5 0.15625,1.46875 1.8125,1.46875 0.9375,0 1.65625,-0.53125 1.65625,-1.390625 0,-0.5625 -0.3125,-0.890625 -1.1875,-1.109375 L 1.828125,-2.546875 c -0.546875,-0.140625 -0.75,-0.21875 -0.75,-0.5625 0,-0.515625 0.609375,-0.59375 0.828125,-0.59375 0.890625,0 0.984375,0.453125 0.984375,0.71875 z m 0,0"
           id="path7440" />
      </g>
      <g
         id="use876"
         transform="translate(491.27679,206.4323)">
        <path
           d="M 2.859375,-3.234375 H 2.875 L 3.734375,0 h 0.71875 l 1.21875,-4.1875 H 4.96875 L 4.125,-0.890625 H 4.109375 L 3.28125,-4.1875 H 2.5 L 1.703125,-0.890625 H 1.6875 L 0.875,-4.1875 H 0.109375 L 1.3125,0 h 0.734375 z m 0,0"
           id="path7254" />
      </g>
      <g
         id="use878"
         transform="translate(497.0528,206.4323)">
        <path
           d="M 1.234375,-4.1875 H 0.53125 V 0 h 0.703125 z m 0,-0.75 V -5.75 H 0.53125 v 0.8125 z m 0,0"
           id="path7234" />
      </g>
      <g
         id="use880"
         transform="translate(498.8288,206.4323)">
        <path
           d="M 2.0625,-3.59375 V -4.1875 H 1.390625 V -5.359375 H 0.6875 V -4.1875 H 0.109375 v 0.59375 H 0.6875 v 2.75 c 0,0.5 0.140625,0.90625 0.84375,0.90625 0.0625,0 0.265625,-0.03125 0.53125,-0.0625 v -0.546875 h -0.25 c -0.15625,0 -0.421875,0 -0.421875,-0.328125 v -2.71875 z m 0,0"
           id="path7286" />
      </g>
      <g
         id="use882"
         transform="translate(501.0528,206.4323)">
        <path
           d="M 3.8125,-2.78125 C 3.765625,-3.5 3.34375,-4.296875 2.25,-4.296875 c -1.390625,0 -2.015625,1.03125 -2.015625,2.328125 0,1.203125 0.703125,2.09375 1.875,2.09375 C 3.34375,0.125 3.75,-0.8125 3.8125,-1.484375 H 3.140625 c -0.125,0.640625 -0.53125,1 -1,1 -0.96875,0 -1.15625,-0.890625 -1.15625,-1.609375 0,-0.75 0.28125,-1.578125 1.15625,-1.578125 0.59375,0 0.90625,0.328125 1,0.890625 z m 0,0"
           id="path7556" />
      </g>
      <g
         id="use884"
         transform="translate(505.0528,206.4323)">
        <path
           d="m 3.921875,-2.84375 c 0,-1.203125 -0.8125,-1.453125 -1.453125,-1.453125 -0.671875,0 -1.03125,0.40625 -1.234375,0.671875 H 1.21875 V -5.75 H 0.515625 V 0 H 1.21875 v -2.28125 c 0,-1.0625 0.59375,-1.390625 1.171875,-1.390625 0.671875,0 0.828125,0.375 0.828125,0.9375 V 0 h 0.703125 z m 0,0"
           id="path7226" />
      </g>
    </g>
    <path
       fill="none"
       stroke-width="0.176389"
       stroke-linecap="butt"
       stroke-linejoin="miter"
       stroke="#231f20"
       stroke-opacity="1"
       stroke-miterlimit="4"
       d="M 61.26299,159.14339 V 134.00797"
       id="path888" />
    <path
       fill-rule="nonzero"
       fill="#231f20"
       fill-opacity="1"
       d="m 60.556055,159.11307 0.704177,1.21819 0.704179,-1.21819 h -1.408356"
       id="path890"
       style="stroke-width:0.352778" />
    <g
       fill="#231f20"
       fill-opacity="1"
       id="g894"
       transform="matrix(0.35277777,0,0,0.35277777,-24.49646,82.926856)">
      <g
         id="use892"
         transform="translate(235.0067,138.4285)">
        <path
           d="M 0.109375,-5.0625 H 2.0625 V 0 H 2.828125 V -5.0625 H 4.78125 V -5.75 H 0.109375 Z m 0,0"
           id="path7218" />
      </g>
    </g>
    <g
       fill="#231f20"
       fill-opacity="1"
       id="g902"
       transform="matrix(0.35277777,0,0,0.35277777,-24.49646,82.926856)">
      <g
         id="use896"
         transform="translate(239.59869,138.4285)">
        <path
           d="M 1.234375,-4.1875 H 0.53125 V 0 h 0.703125 z m 0,-0.75 V -5.75 H 0.53125 v 0.8125 z m 0,0"
           id="path7238" />
      </g>
      <g
         id="use898"
         transform="translate(241.37469,138.4285)">
        <path
           d="M 0.515625,0 H 1.21875 v -2.28125 c 0,-1.140625 0.703125,-1.390625 1.109375,-1.390625 0.515625,0 0.65625,0.421875 0.65625,0.78125 V 0 H 3.6875 v -2.546875 c 0,-0.5625 0.390625,-1.125 0.984375,-1.125 0.59375,0 0.78125,0.390625 0.78125,0.96875 V 0 H 6.15625 v -2.890625 c 0,-1.1875 -0.859375,-1.40625 -1.296875,-1.40625 -0.65625,0 -0.9375,0.28125 -1.28125,0.671875 -0.125,-0.21875 -0.359375,-0.671875 -1.109375,-0.671875 -0.75,0 -1.109375,0.484375 -1.265625,0.703125 H 1.1875 V -4.1875 H 0.515625 Z m 0,0"
           id="path7210" />
      </g>
      <g
         id="use900"
         transform="translate(248.0387,138.4285)">
        <path
           d="M 3.375,-1.3125 C 3.34375,-1 2.953125,-0.484375 2.28125,-0.484375 c -0.796875,0 -1.203125,-0.5 -1.203125,-1.375 H 4.125 c 0,-1.484375 -0.59375,-2.4375 -1.796875,-2.4375 -1.390625,0 -2.015625,1.03125 -2.015625,2.328125 0,1.203125 0.703125,2.09375 1.875,2.09375 0.671875,0 0.953125,-0.171875 1.140625,-0.296875 0.53125,-0.34375 0.71875,-0.9375 0.75,-1.140625 z M 1.078125,-2.421875 c 0,-0.65625 0.5,-1.25 1.15625,-1.25 0.859375,0 1.125,0.59375 1.171875,1.25 z m 0,0"
           id="path7512" />
      </g>
    </g>
    <path
       fill="none"
       stroke-width="0.176389"
       stroke-linecap="butt"
       stroke-linejoin="miter"
       stroke="#231f20"
       stroke-opacity="1"
       stroke-miterlimit="4"
       d="m 144.67839,144.69328 c 0.43547,0 0.78824,-0.35277 0.78824,-0.78961 v -1.31603 c 0,-0.43546 0.35416,-0.78824 0.78962,-0.78824 -0.43546,0 -0.78962,-0.35278 -0.78962,-0.78823 v -1.26229 c 0,-0.43546 -0.35277,-0.78824 -0.78824,-0.78824"
       id="path904" />
    <path
       fill="none"
       stroke-width="0.176389"
       stroke-linecap="butt"
       stroke-linejoin="miter"
       stroke="#231f20"
       stroke-opacity="1"
       stroke-miterlimit="4"
       d="m 144.67839,156.20955 c 0.43547,0 0.78824,-0.35416 0.78824,-0.78962 v -1.31602 c 0,-0.43547 0.35416,-0.78824 0.78962,-0.78824 -0.43546,0 -0.78962,-0.35278 -0.78962,-0.78824 v -1.26228 c 0,-0.43546 -0.35277,-0.78824 -0.78824,-0.78824"
       id="path906" />
    <path
       fill="none"
       stroke-width="0.176389"
       stroke-linecap="butt"
       stroke-linejoin="miter"
       stroke="#231f20"
       stroke-opacity="1"
       stroke-dasharray="2, 1.5"
       stroke-miterlimit="4"
       d="m 82.805859,139.06813 h 3.56774"
       id="path908" />
    <path
       fill-rule="nonzero"
       fill="#231f20"
       fill-opacity="1"
       d="m 86.263356,139.06813 -0.235645,-0.38861 0.01379,-0.008 0.63114,0.2508 c 0.220486,0.0482 0.440973,0.0978 0.661459,0.14607 -0.220486,0.0482 -0.440973,0.0965 -0.661459,0.1447 l -0.63114,0.25218 -0.01379,-0.007 0.235645,-0.38999"
       id="path910"
       style="stroke-width:0.352778" />
    <g
       fill="#231f20"
       fill-opacity="1"
       id="g940"
       transform="matrix(0.35277777,0,0,0.35277777,-24.49646,82.926856)">
      <g
         id="use912"
         transform="translate(255.18221,193.7576)">
        <path
           d="M 0.640625,0 H 2.9375 C 4.828125,0 5.390625,-1.65625 5.390625,-2.953125 5.390625,-4.609375 4.46875,-5.75 2.96875,-5.75 H 0.640625 Z m 0.78125,-5.078125 H 2.875 c 1.046875,0 1.71875,0.71875 1.71875,2.171875 0,1.453125 -0.65625,2.25 -1.671875,2.25 h -1.5 z m 0,0"
           id="path7206" />
      </g>
      <g
         id="use914"
         transform="translate(260.95819,193.7576)">
        <path
           d="M 1.234375,-4.1875 H 0.53125 V 0 h 0.703125 z m 0,-0.75 V -5.75 H 0.53125 v 0.8125 z m 0,0"
           id="path7242" />
      </g>
      <g
         id="use916"
         transform="translate(262.73419,193.7576)">
        <path
           d="m 3.578125,-2.984375 c 0,-0.21875 -0.109375,-1.3125 -1.609375,-1.3125 -0.8125,0 -1.578125,0.40625 -1.578125,1.328125 0,0.578125 0.390625,0.875 0.96875,1.015625 L 2.171875,-1.75 c 0.609375,0.15625 0.84375,0.265625 0.84375,0.59375 0,0.46875 -0.46875,0.671875 -0.96875,0.671875 -0.984375,0 -1.09375,-0.53125 -1.109375,-0.859375 H 0.25 c 0.03125,0.5 0.15625,1.46875 1.8125,1.46875 0.9375,0 1.65625,-0.53125 1.65625,-1.390625 0,-0.5625 -0.3125,-0.890625 -1.1875,-1.109375 L 1.828125,-2.546875 c -0.546875,-0.140625 -0.75,-0.21875 -0.75,-0.5625 0,-0.515625 0.609375,-0.59375 0.828125,-0.59375 0.890625,0 0.984375,0.453125 0.984375,0.71875 z m 0,0"
           id="path7444" />
      </g>
      <g
         id="use918"
         transform="translate(266.73419,193.7576)">
        <path
           d="M 2.3125,-2.625 3.90625,-4.1875 H 3.015625 L 1.21875,-2.421875 V -5.75 H 0.53125 V 0 h 0.6875 V -1.578125 L 1.796875,-2.109375 3.109375,0 h 0.90625 z m 0,0"
           id="path7202" />
      </g>
      <g
         id="use920"
         transform="translate(270.73419,193.7576)" />
      <g
         id="use922"
         transform="translate(272.95819,193.7576)">
        <path
           d="M 1.234375,-4.1875 H 0.53125 V 0 h 0.703125 z m 0,-0.75 V -5.75 H 0.53125 v 0.8125 z m 0,0"
           id="path7246" />
      </g>
      <g
         id="use924"
         transform="translate(274.73419,193.7576)">
        <path
           d="m 3.921875,-2.84375 c 0,-1.203125 -0.8125,-1.453125 -1.453125,-1.453125 -0.71875,0 -1.109375,0.484375 -1.265625,0.703125 H 1.1875 V -4.1875 H 0.515625 V 0 H 1.21875 v -2.28125 c 0,-1.140625 0.703125,-1.390625 1.109375,-1.390625 0.6875,0 0.890625,0.375 0.890625,1.09375 V 0 h 0.703125 z m 0,0"
           id="path7334" />
      </g>
      <g
         id="use926"
         transform="translate(279.18219,193.7576)">
        <path
           d="M 2.0625,-3.59375 V -4.1875 H 1.390625 V -5.359375 H 0.6875 V -4.1875 H 0.109375 v 0.59375 H 0.6875 v 2.75 c 0,0.5 0.140625,0.90625 0.84375,0.90625 0.0625,0 0.265625,-0.03125 0.53125,-0.0625 v -0.546875 h -0.25 c -0.15625,0 -0.421875,0 -0.421875,-0.328125 v -2.71875 z m 0,0"
           id="path7290" />
      </g>
      <g
         id="use928"
         transform="translate(281.40619,193.7576)">
        <path
           d="M 3.375,-1.3125 C 3.34375,-1 2.953125,-0.484375 2.28125,-0.484375 c -0.796875,0 -1.203125,-0.5 -1.203125,-1.375 H 4.125 c 0,-1.484375 -0.59375,-2.4375 -1.796875,-2.4375 -1.390625,0 -2.015625,1.03125 -2.015625,2.328125 0,1.203125 0.703125,2.09375 1.875,2.09375 0.671875,0 0.953125,-0.171875 1.140625,-0.296875 0.53125,-0.34375 0.71875,-0.9375 0.75,-1.140625 z M 1.078125,-2.421875 c 0,-0.65625 0.5,-1.25 1.15625,-1.25 0.859375,0 1.125,0.59375 1.171875,1.25 z m 0,0"
           id="path7516" />
      </g>
      <g
         id="use930"
         transform="translate(285.85419,193.7576)">
        <path
           d="m 1.3125,-2.4375 c 0,-0.609375 0.421875,-1.109375 1.078125,-1.109375 H 2.65625 V -4.28125 c -0.0625,-0.015625 -0.09375,-0.015625 -0.1875,-0.015625 -0.53125,0 -0.890625,0.328125 -1.171875,0.8125 H 1.28125 V -4.1875 H 0.609375 V 0 H 1.3125 Z m 0,0"
           id="path7628" />
      </g>
      <g
         id="use932"
         transform="translate(288.51819,193.7576)">
        <path
           d="m 1.3125,-2.4375 c 0,-0.609375 0.421875,-1.109375 1.078125,-1.109375 H 2.65625 V -4.28125 c -0.0625,-0.015625 -0.09375,-0.015625 -0.1875,-0.015625 -0.53125,0 -0.890625,0.328125 -1.171875,0.8125 H 1.28125 V -4.1875 H 0.609375 V 0 H 1.3125 Z m 0,0"
           id="path7632" />
      </g>
      <g
         id="use934"
         transform="translate(291.18219,193.7576)">
        <path
           d="M 3.90625,0 V -4.1875 H 3.203125 v 2.3125 c 0,0.609375 -0.265625,1.390625 -1.140625,1.390625 -0.46875,0 -0.8125,-0.234375 -0.8125,-0.921875 V -4.1875 H 0.546875 v 3.015625 c 0,1 0.734375,1.296875 1.359375,1.296875 0.671875,0 1.03125,-0.265625 1.328125,-0.75 L 3.25,-0.609375 V 0 Z m 0,0"
           id="path7194" />
      </g>
      <g
         id="use936"
         transform="translate(295.63019,193.7576)">
        <path
           d="m 1.140625,-1.890625 c 0,-0.6875 0.109375,-1.78125 1.125,-1.78125 1.09375,0 1.140625,1.03125 1.140625,1.5625 0,0.921875 -0.359375,1.625 -1.125,1.625 -0.453125,0 -1.140625,-0.296875 -1.140625,-1.40625 z M 0.46875,1.65625 H 1.171875 V -0.4375 H 1.1875 c 0.1875,0.296875 0.546875,0.5625 1.109375,0.5625 1.421875,0 1.84375,-1.34375 1.84375,-2.34375 0,-1.171875 -0.640625,-2.078125 -1.75,-2.078125 -0.765625,0 -1.078125,0.46875 -1.25,0.703125 H 1.125 V -4.1875 H 0.46875 Z m 0,0"
           id="path7190" />
      </g>
      <g
         id="use938"
         transform="translate(300.07819,193.7576)">
        <path
           d="M 2.0625,-3.59375 V -4.1875 H 1.390625 V -5.359375 H 0.6875 V -4.1875 H 0.109375 v 0.59375 H 0.6875 v 2.75 c 0,0.5 0.140625,0.90625 0.84375,0.90625 0.0625,0 0.265625,-0.03125 0.53125,-0.0625 v -0.546875 h -0.25 c -0.15625,0 -0.421875,0 -0.421875,-0.328125 v -2.71875 z m 0,0"
           id="path7294" />
      </g>
    </g>
    <path
       fill="none"
       stroke-width="0.176389"
       stroke-linecap="butt"
       stroke-linejoin="miter"
       stroke="#231f20"
       stroke-opacity="1"
       stroke-dasharray="2, 1.5"
       stroke-miterlimit="4"
       d="m 82.805859,150.46451 h 3.56774"
       id="path942" />
    <g
       fill="#231f20"
       fill-opacity="1"
       id="g956"
       transform="matrix(0.35277777,0,0,0.35277777,-24.49646,82.926856)">
      <g
         id="use944"
         transform="translate(278.29391,205.06419)">
        <path
           d="m 1.484375,-2.46875 h 1.875 c 0.921875,0 1.03125,0.5625 1.03125,1.03125 0,0.21875 0.015625,1.078125 0.125,1.4375 H 5.46875 V -0.125 C 5.234375,-0.265625 5.1875,-0.390625 5.1875,-0.703125 L 5.140625,-1.75 C 5.109375,-2.546875 4.78125,-2.6875 4.453125,-2.828125 4.8125,-3.046875 5.25,-3.359375 5.25,-4.203125 5.25,-5.421875 4.296875,-5.75 3.359375,-5.75 H 0.703125 V 0 h 0.78125 z m 0,-2.609375 h 1.9375 c 0.375,0 1.03125,0.0625 1.03125,0.953125 0,0.859375 -0.609375,1 -1.171875,1 H 1.484375 Z m 0,0"
           id="path7186" />
      </g>
      <g
         id="use946"
         transform="translate(284.06989,205.06419)">
        <path
           d="M 3.375,-1.3125 C 3.34375,-1 2.953125,-0.484375 2.28125,-0.484375 c -0.796875,0 -1.203125,-0.5 -1.203125,-1.375 H 4.125 c 0,-1.484375 -0.59375,-2.4375 -1.796875,-2.4375 -1.390625,0 -2.015625,1.03125 -2.015625,2.328125 0,1.203125 0.703125,2.09375 1.875,2.09375 0.671875,0 0.953125,-0.171875 1.140625,-0.296875 0.53125,-0.34375 0.71875,-0.9375 0.75,-1.140625 z M 1.078125,-2.421875 c 0,-0.65625 0.5,-1.25 1.15625,-1.25 0.859375,0 1.125,0.59375 1.171875,1.25 z m 0,0"
           id="path7520" />
      </g>
      <g
         id="use948"
         transform="translate(288.51791,205.06419)">
        <path
           d="M 2.0625,-3.59375 V -4.1875 H 1.390625 V -5.359375 H 0.6875 V -4.1875 H 0.109375 v 0.59375 H 0.6875 v 2.75 c 0,0.5 0.140625,0.90625 0.84375,0.90625 0.0625,0 0.265625,-0.03125 0.53125,-0.0625 v -0.546875 h -0.25 c -0.15625,0 -0.421875,0 -0.421875,-0.328125 v -2.71875 z m 0,0"
           id="path7298" />
      </g>
      <g
         id="use950"
         transform="translate(290.74191,205.06419)">
        <path
           d="M 3.90625,0 V -4.1875 H 3.203125 v 2.3125 c 0,0.609375 -0.265625,1.390625 -1.140625,1.390625 -0.46875,0 -0.8125,-0.234375 -0.8125,-0.921875 V -4.1875 H 0.546875 v 3.015625 c 0,1 0.734375,1.296875 1.359375,1.296875 0.671875,0 1.03125,-0.265625 1.328125,-0.75 L 3.25,-0.609375 V 0 Z m 0,0"
           id="path7198" />
      </g>
      <g
         id="use952"
         transform="translate(295.18991,205.06419)">
        <path
           d="m 1.3125,-2.4375 c 0,-0.609375 0.421875,-1.109375 1.078125,-1.109375 H 2.65625 V -4.28125 c -0.0625,-0.015625 -0.09375,-0.015625 -0.1875,-0.015625 -0.53125,0 -0.890625,0.328125 -1.171875,0.8125 H 1.28125 V -4.1875 H 0.609375 V 0 H 1.3125 Z m 0,0"
           id="path7636" />
      </g>
      <g
         id="use954"
         transform="translate(297.85391,205.06419)">
        <path
           d="m 3.921875,-2.84375 c 0,-1.203125 -0.8125,-1.453125 -1.453125,-1.453125 -0.71875,0 -1.109375,0.484375 -1.265625,0.703125 H 1.1875 V -4.1875 H 0.515625 V 0 H 1.21875 v -2.28125 c 0,-1.140625 0.703125,-1.390625 1.109375,-1.390625 0.6875,0 0.890625,0.375 0.890625,1.09375 V 0 h 0.703125 z m 0,0"
           id="path7338" />
      </g>
    </g>
    <g
       fill="#231f20"
       fill-opacity="1"
       id="g968"
       transform="matrix(0.35277777,0,0,0.35277777,-24.49646,82.926856)">
      <g
         id="use958"
         transform="translate(266.22989,214.06419)">
        <path
           d="M 2.09375,-3.59375 V -4.1875 H 1.390625 V -4.703125 C 1.390625,-5.046875 1.5,-5.1875 1.8125,-5.1875 c 0.078125,0 0.203125,0 0.28125,0.015625 V -5.8125 c -0.109375,0 -0.21875,-0.015625 -0.3125,-0.015625 -0.6875,0 -1.09375,0.296875 -1.09375,0.921875 V -4.1875 H 0.109375 v 0.59375 H 0.6875 V 0 h 0.703125 v -3.59375 z m 0,0"
           id="path7182" />
      </g>
      <g
         id="use960"
         transform="translate(268.45389,214.06419)">
        <path
           d="m 1.3125,-2.4375 c 0,-0.609375 0.421875,-1.109375 1.078125,-1.109375 H 2.65625 V -4.28125 c -0.0625,-0.015625 -0.09375,-0.015625 -0.1875,-0.015625 -0.53125,0 -0.890625,0.328125 -1.171875,0.8125 H 1.28125 V -4.1875 H 0.609375 V 0 H 1.3125 Z m 0,0"
           id="path7640" />
      </g>
      <g
         id="use962"
         transform="translate(271.11789,214.06419)">
        <path
           d="m 0.28125,-2.09375 c 0,1.078125 0.609375,2.203125 1.9375,2.203125 1.34375,0 1.953125,-1.125 1.953125,-2.203125 0,-1.078125 -0.609375,-2.203125 -1.953125,-2.203125 -1.328125,0 -1.9375,1.125 -1.9375,2.203125 z m 0.734375,0 c 0,-0.5625 0.203125,-1.609375 1.203125,-1.609375 1.015625,0 1.21875,1.046875 1.21875,1.609375 0,0.5625 -0.203125,1.59375 -1.21875,1.59375 -1,0 -1.203125,-1.03125 -1.203125,-1.59375 z m 0,0"
           id="path7596" />
      </g>
      <g
         id="use964"
         transform="translate(275.56589,214.06419)">
        <path
           d="M 0.515625,0 H 1.21875 v -2.28125 c 0,-1.140625 0.703125,-1.390625 1.109375,-1.390625 0.515625,0 0.65625,0.421875 0.65625,0.78125 V 0 H 3.6875 v -2.546875 c 0,-0.5625 0.390625,-1.125 0.984375,-1.125 0.59375,0 0.78125,0.390625 0.78125,0.96875 V 0 H 6.15625 v -2.890625 c 0,-1.1875 -0.859375,-1.40625 -1.296875,-1.40625 -0.65625,0 -0.9375,0.28125 -1.28125,0.671875 -0.125,-0.21875 -0.359375,-0.671875 -1.109375,-0.671875 -0.75,0 -1.109375,0.484375 -1.265625,0.703125 H 1.1875 V -4.1875 H 0.515625 Z m 0,0"
           id="path7214" />
      </g>
      <g
         id="use966"
         transform="translate(282.22989,214.06419)" />
    </g>
    <g
       fill="#231f20"
       fill-opacity="1"
       id="g978"
       transform="matrix(0.35277777,0,0,0.35277777,-24.49646,82.926856)">
      <g
         id="use970"
         transform="translate(284.4519,214.06419)">
        <path
           d="m 1.890625,-1.578125 c 0,-0.796875 0.5,-1.625 1.53125,-1.625 0,0.21875 0.140625,0.375 0.359375,0.375 0.1875,0 0.359375,-0.125 0.359375,-0.359375 0,-0.171875 -0.109375,-0.53125 -0.8125,-0.53125 -0.421875,0 -0.96875,0.15625 -1.4375,0.6875 V -3.3125 c 0,-0.265625 -0.046875,-0.34375 -0.34375,-0.34375 h -0.9375 c -0.125,0 -0.34375,0 -0.34375,0.25 0,0.265625 0.203125,0.265625 0.34375,0.265625 h 0.6875 v 2.625 h -0.6875 c -0.125,0 -0.34375,0 -0.34375,0.25 C 0.265625,0 0.46875,0 0.609375,0 h 2.21875 c 0.125,0 0.34375,0 0.34375,-0.25 0,-0.265625 -0.21875,-0.265625 -0.34375,-0.265625 h -0.9375 z m 0,0"
           id="path7178" />
      </g>
      <g
         id="use972"
         transform="translate(288.9144,214.06419)">
        <path
           d="m 3.609375,-1.625 c 0.171875,0 0.328125,0 0.328125,-0.3125 0,-0.96875 -0.53125,-1.796875 -1.640625,-1.796875 -1.015625,0 -1.828125,0.84375 -1.828125,1.890625 0,1.03125 0.859375,1.890625 1.953125,1.890625 1.125,0 1.515625,-0.765625 1.515625,-0.96875 0,-0.25 -0.234375,-0.25 -0.296875,-0.25 -0.140625,0 -0.203125,0.03125 -0.28125,0.1875 -0.171875,0.4375 -0.640625,0.515625 -0.875,0.515625 -0.640625,0 -1.28125,-0.421875 -1.40625,-1.15625 z m -2.53125,-0.515625 c 0.125,-0.609375 0.625,-1.078125 1.21875,-1.078125 0.4375,0 0.96875,0.203125 1.046875,1.078125 z m 0,0"
           id="path7170" />
      </g>
      <g
         id="use974"
         transform="translate(293.37689,214.06419)">
        <path
           d="M 3.109375,-0.265625 C 3.296875,-0.015625 3.703125,0 4.03125,0 c 0.234375,0 0.421875,0 0.421875,-0.265625 0,-0.25 -0.21875,-0.25 -0.34375,-0.25 -0.359375,0 -0.4375,-0.046875 -0.5,-0.078125 v -1.828125 c 0,-0.609375 -0.46875,-1.3125 -1.6875,-1.3125 -0.359375,0 -1.234375,0 -1.234375,0.609375 0,0.265625 0.171875,0.390625 0.390625,0.390625 0.125,0 0.359375,-0.078125 0.359375,-0.390625 0,-0.0625 0.015625,-0.078125 0.1875,-0.09375 0.125,0 0.234375,0 0.296875,0 0.65625,0 1.09375,0.265625 1.09375,0.859375 -1.5,0.03125 -2.546875,0.453125 -2.546875,1.265625 C 0.46875,-0.5 1,0.046875 1.875,0.046875 c 0.3125,0 0.84375,-0.0625 1.234375,-0.3125 z m -0.09375,-1.59375 v 0.71875 c 0,0.203125 0,0.375 -0.328125,0.53125 C 2.375,-0.46875 2,-0.46875 1.921875,-0.46875 c -0.515625,0 -0.875,-0.28125 -0.875,-0.625 0,-0.40625 0.734375,-0.71875 1.96875,-0.765625 z m 0,0"
           id="path7162" />
      </g>
      <g
         id="use976"
         transform="translate(297.83939,214.06419)">
        <path
           d="M 3.046875,-0.421875 C 3.046875,-0.125 3.046875,0 3.390625,0 H 4 c 0.140625,0 0.359375,0 0.359375,-0.265625 0,-0.25 -0.234375,-0.25 -0.34375,-0.25 H 3.625 V -4.84375 c 0,-0.265625 -0.046875,-0.34375 -0.328125,-0.34375 h -0.625 c -0.140625,0 -0.34375,0 -0.34375,0.25 0,0.265625 0.21875,0.265625 0.328125,0.265625 h 0.390625 v 1.34375 c -0.28125,-0.25 -0.640625,-0.390625 -1,-0.390625 -0.921875,0 -1.734375,0.8125 -1.734375,1.890625 0,1.046875 0.765625,1.875 1.65625,1.875 0.484375,0 0.84375,-0.21875 1.078125,-0.46875 z m 0,-1.828125 v 0.59375 c 0,0.484375 -0.390625,1.1875 -1.046875,1.1875 -0.59375,0 -1.109375,-0.609375 -1.109375,-1.359375 0,-0.8125 0.59375,-1.375 1.1875,-1.375 0.546875,0 0.96875,0.484375 0.96875,0.953125 z m 0,0"
           id="path7154" />
      </g>
    </g>
    <path
       fill-rule="nonzero"
       fill="#231f20"
       fill-opacity="1"
       d="m 86.263356,150.46451 -0.235645,-0.38861 0.01379,-0.008 0.63114,0.25081 c 0.220486,0.0496 0.440973,0.0978 0.661459,0.14607 -0.220486,0.0482 -0.440973,0.0965 -0.661459,0.14469 l -0.63114,0.25218 -0.01379,-0.007 0.235645,-0.38999"
       id="path980"
       style="stroke-width:0.352778" />
    <path
       fill="none"
       stroke-width="0.176389"
       stroke-linecap="butt"
       stroke-linejoin="miter"
       stroke="#231f20"
       stroke-opacity="1"
       stroke-dasharray="2, 1.5"
       stroke-miterlimit="4"
       d="m 82.805859,156.14065 h 3.56774"
       id="path982" />
    <path
       fill-rule="nonzero"
       fill="#231f20"
       fill-opacity="1"
       d="m 86.263356,156.14065 -0.235645,-0.38723 0.01379,-0.008 0.63114,0.25081 c 0.220486,0.0482 0.440973,0.0965 0.661459,0.14469 -0.220486,0.0496 -0.440973,0.0978 -0.661459,0.14607 l -0.63114,0.25081 -0.01379,-0.006 0.235645,-0.39136"
       id="path984"
       style="stroke-width:0.352778" />
  </g>
</svg>
